<?xml version="1.0" encoding="UTF-8" standalone="no"?>
<!DOCTYPE svg PUBLIC "-//W3C//DTD SVG 20010904//EN"
"http://www.w3.org/TR/2001/REC-SVG-20010904/DTD/svg10.dtd">
<!-- Created with Sodipodi ("http://www.sodipodi.com/") -->
<svg
   version="1"
   x="0"
   y="0"
   width="125.95"
   height="125.95"
   id="svg101"
   xmlns="http://www.w3.org/2000/svg"
   xmlns:sodipodi="http://sodipodi.sourceforge.net/DTD/sodipodi-0.dtd"
   xmlns:inkscape="http://www.inkscape.org/namespaces/inkscape"
   xmlns:xlink="http://www.w3.org/1999/xlink"
   sodipodi:version="0.32"
   inkscape:version="0.38.1"
   sodipodi:docname="crsc-app-akregator_2.svg"
   sodipodi:docbase="/mnt/win_d/Graphics/icons/akregator">
  <sodipodi:namedview
     id="base"
     pagecolor="#ffffff"
     bordercolor="#666666"
     borderopacity="1.0"
     inkscape:pageopacity="0.0"
     inkscape:pageshadow="2"
     inkscape:zoom="4.9119411"
     inkscape:cx="79.697087"
     inkscape:cy="52.501513"
     inkscape:window-width="1014"
     inkscape:window-height="697"
     showgrid="false"
     snaptogrid="false"
     gridspacingx="1.0000000mm"
     gridspacingy="1.0000000mm"
     inkscape:window-x="0"
     inkscape:window-y="48" />
  <defs
     id="defs102">
    <radialGradient
       cx="106.724"
       cy="85.5679"
       fx="106.819"
       fy="85.6794"
       r="14.516"
       id="defitem0"
       gradientUnits="userSpaceOnUse"
       spreadMethod="pad">
      <stop
         style="stop-color:#ffd400;stop-opacity:1;"
         offset="0"
         id="stop104" />
      <stop
         style="stop-color:#ff5b00;stop-opacity:1;"
         offset="1"
         id="stop105" />
    </radialGradient>
    <radialGradient
       cx="8.63591"
       cy="36.0935"
       fx="8.63589"
       fy="36.7301"
       r="75.9154"
       id="defitem1"
       gradientUnits="userSpaceOnUse"
       spreadMethod="pad">
      <stop
         style="stop-color:#ffffff;stop-opacity:1.0000000;"
         offset="0.0000000"
         id="stop107" />
      <stop
         style="stop-color:#8b8ba3;stop-opacity:1.0000000;"
         offset="1.0000000"
         id="stop108" />
    </radialGradient>
    <radialGradient
       cx="80.1399"
       cy="41.8356"
       fx="80.1399"
       fy="42.0155"
       r="15.2933"
       id="defitem2"
       gradientUnits="userSpaceOnUse"
       spreadMethod="pad">
      <stop
         style="stop-color:#d7d7e3;stop-opacity:1.0000000;"
         offset="0.0000000"
         id="stop110" />
      <stop
         style="stop-color:#7f7f9b;stop-opacity:1.0000000;"
         offset="1.0000000"
         id="stop111" />
    </radialGradient>
    <radialGradient
       cx="116.272"
       cy="54.9889"
       fx="116.272"
       fy="54.9889"
       r="16.626"
       id="defitem3"
       gradientUnits="userSpaceOnUse"
       spreadMethod="pad">
      <stop
         style="stop-color:#ffd400;stop-opacity:1;"
         offset="0"
         id="stop113" />
      <stop
         style="stop-color:#ff5b00;stop-opacity:1;"
         offset="1"
         id="stop114" />
    </radialGradient>
    <radialGradient
       cx="6.06377"
       cy="97.8211"
       fx="6.47127"
       fy="98.9191"
       r="80.2616"
       id="defitem4"
       gradientUnits="userSpaceOnUse"
       spreadMethod="pad">
      <stop
         style="stop-color:#ffe100;stop-opacity:1;"
         offset="0"
         id="stop116" />
      <stop
         style="stop-color:#ff7c00;stop-opacity:1;"
         offset="1"
         id="stop117" />
    </radialGradient>
    <linearGradient
       x1="65.177"
       y1="93.4718"
       x2="65.5467"
       y2="62.5948"
       id="defitem5"
       gradientUnits="userSpaceOnUse"
       spreadMethod="pad">
      <stop
         style="stop-color:#ffffff;stop-opacity:1;"
         offset="0"
         id="stop119" />
      <stop
         style="stop-color:#ffffff;stop-opacity:0.257812;"
         offset="1"
         id="stop120" />
    </linearGradient>
    <linearGradient
       xlink:href="#defitem1"
       id="linearGradient939"
       x1="-0.13744076"
       y1="0.51724136"
       x2="1.0000000"
       y2="0.50000000" />
    <linearGradient
       xlink:href="#defitem1"
       id="linearGradient940"
       x1="0.16949153"
       y1="0.17931035"
       x2="0.96610171"
       y2="0.82758623" />
    <linearGradient
       xlink:href="#defitem1"
       id="linearGradient941"
       x1="0.032000002"
       y1="0.20689656"
       x2="0.90399998"
       y2="0.78620690" />
    <linearGradient
       xlink:href="#defitem1"
       id="linearGradient942"
       x1="0.50450450"
       y1="-0.15862069"
       x2="0.50450450"
       y2="0.77931035" />
    <linearGradient
       xlink:href="#defitem2"
       id="linearGradient944"
       x1="0.54198474"
       y1="0.017647060"
       x2="0.54198474"
       y2="0.76470590" />
    <linearGradient
       xlink:href="#defitem2"
       id="linearGradient946"
       x1="0.080536909"
       y1="0.11764706"
       x2="0.67785233"
       y2="0.83529413" />
    <linearGradient
       xlink:href="#defitem2"
       id="linearGradient948"
       x1="0.091787443"
       y1="0.088235296"
       x2="0.61835748"
       y2="0.40000001" />
    <linearGradient
       xlink:href="#defitem2"
       id="linearGradient950"
       x1="2.1410825e-15"
       y1="0.50000000"
       x2="1.0000000"
       y2="0.50000000" />
    <linearGradient
       xlink:href="#defitem2"
       id="linearGradient952"
       x1="0.49707603"
       y1="0.0058823531"
       x2="-0.12865497"
       y2="1.1235294" />
    <linearGradient
       xlink:href="#defitem5"
       id="linearGradient953"
       x1="49.480907"
       y1="35.925533"
       x2="49.764221"
       y2="52.523853"
       gradientUnits="userSpaceOnUse" />
    <radialGradient
       xlink:href="#defitem4"
       id="radialGradient963"
       cx="67.000717"
       cy="73.146729"
       r="39.182816"
       fx="67.000717"
       fy="73.146729"
       gradientUnits="userSpaceOnUse" />
  </defs>
  <g
     id="g1147">
    <g
       id="g1143"
       transform="translate(-0.254482,0.000000)">
      <path
         d="M 7.0866142,33.824013 L 7.0866142,75.453011 L 60.236220,75.453011 C 82.934593,75.279988 101.94298,55.548604 102.75591,33.824013 L 7.0866142,33.824013 z "
         style="fill:url(#radialGradient963);fill-rule:evenodd;stroke-width:1.4991601;"
         id="path848"
         sodipodi:nodetypes="ccccc"
         transform="matrix(1.072129,0.000000,0.000000,1.072129,-5.495537,-0.534745)" />
      <path
         d="M 7.0866142,33.824013 L 7.0866142,75.453011 L 60.236220,75.453011 C 82.934593,75.279988 101.94298,55.548604 102.75591,33.824013 L 7.0866142,33.824013 z "
         style="fill:none;fill-rule:evenodd;stroke:#ff0000;stroke-width:1.5000000;stroke-linejoin:round;"
         id="path1019"
         sodipodi:nodetypes="ccccc"
         transform="matrix(1.072129,0.000000,0.000000,1.072129,-5.495537,-0.534745)" />
      <path
         d="M 9.7429521,36.280413 L 9.7592790,52.553149 C 24.010264,59.933123 86.115360,55.070433 92.143166,43.700204 C 93.190484,41.377455 93.474356,38.927466 93.376505,36.350236 L 9.7429521,36.280413 z "
         style="opacity:0.67231637;fill:url(#linearGradient953);fill-opacity:0.42372897;fill-rule:evenodd;stroke-width:1.4991601;"
         id="path862"
         sodipodi:nodetypes="ccccc"
         transform="matrix(1.072129,0.000000,0.000000,1.072129,-5.495537,-0.534745)" />
    </g>
    <g
       id="g960"
       transform="matrix(1.072129,0.000000,0.000000,1.072129,-5.750015,0.483180)"
       style="">
      <path
         style="font-size:32.000000;font-weight:bold;stroke-width:1.0000000pt;font-family:Bitstream Vera Sans;fill:#000000;fill-opacity:0.46808511;"
         d="M 79.277626,42.738199 L 79.277626,47.675699 C 77.996376,47.102783 76.746376,46.670491 75.527626,46.378824 C 74.308876,46.087158 73.157835,45.941324 72.074501,45.941324 C 70.637001,45.941324 69.574501,46.139241 68.887001,46.535074 C 68.199501,46.930908 67.855751,47.545491 67.855751,48.378824 C 67.855751,49.003824 68.084918,49.493408 68.543251,49.847574 C 69.012001,50.191324 69.855751,50.488199 71.074501,50.738199 L 73.637001,51.253824 C 76.230751,51.774658 78.074501,52.566324 79.168251,53.628824 C 80.262001,54.691324 80.808876,56.201741 80.808876,58.160074 C 80.808876,60.732991 80.043251,62.649658 78.512001,63.910074 C 76.991168,65.160074 74.663043,65.785074 71.527626,65.785074 C 70.048460,65.785074 68.564085,65.644449 67.074501,65.363199 C 65.584918,65.081949 64.095335,64.665283 62.605751,64.113199 L 62.605751,59.035074 C 64.095335,59.826741 65.532835,60.425699 66.918251,60.831949 C 68.314085,61.227783 69.657835,61.425699 70.949501,61.425699 C 72.262001,61.425699 73.267210,61.206949 73.965126,60.769449 C 74.663043,60.331949 75.012001,59.706949 75.012001,58.894449 C 75.012001,58.165283 74.772418,57.602783 74.293251,57.206949 C 73.824501,56.811116 72.881793,56.456949 71.465126,56.144449 L 69.137001,55.628824 C 66.803668,55.128824 65.095335,54.331949 64.012001,53.238199 C 62.939085,52.144449 62.402626,50.670491 62.402626,48.816324 C 62.402626,46.493408 63.152626,44.706949 64.652626,43.456949 C 66.152626,42.206949 68.308876,41.581949 71.121376,41.581949 C 72.402626,41.581949 73.720335,41.680908 75.074501,41.878824 C 76.428668,42.066324 77.829710,42.352783 79.277626,42.738199 z M 56.230751,42.738199 L 56.230751,47.675699 C 54.949501,47.102783 53.699501,46.670491 52.480751,46.378824 C 51.262001,46.087158 50.110960,45.941324 49.027626,45.941324 C 47.590126,45.941324 46.527626,46.139241 45.840126,46.535074 C 45.152626,46.930908 44.808876,47.545491 44.808876,48.378824 C 44.808876,49.003824 45.038043,49.493408 45.496376,49.847574 C 45.965126,50.191324 46.808876,50.488199 48.027626,50.738199 L 50.590126,51.253824 C 53.183876,51.774658 55.027626,52.566324 56.121376,53.628824 C 57.215126,54.691324 57.762001,56.201741 57.762001,58.160074 C 57.762001,60.732991 56.996376,62.649658 55.465126,63.910074 C 53.944293,65.160074 51.616168,65.785074 48.480751,65.785074 C 47.001585,65.785074 45.517210,65.644449 44.027626,65.363199 C 42.538043,65.081949 41.048460,64.665283 39.558876,64.113199 L 39.558876,59.035074 C 41.048460,59.826741 42.485960,60.425699 43.871376,60.831949 C 45.267210,61.227783 46.610960,61.425699 47.902626,61.425699 C 49.215126,61.425699 50.220335,61.206949 50.918251,60.769449 C 51.616168,60.331949 51.965126,59.706949 51.965126,58.894449 C 51.965126,58.165283 51.725543,57.602783 51.246376,57.206949 C 50.777626,56.811116 49.834918,56.456949 48.418251,56.144449 L 46.090126,55.628824 C 43.756793,55.128824 42.048460,54.331949 40.965126,53.238199 C 39.892210,52.144449 39.355751,50.670491 39.355751,48.816324 C 39.355751,46.493408 40.105751,44.706949 41.605751,43.456949 C 43.105751,42.206949 45.262001,41.581949 48.074501,41.581949 C 49.355751,41.581949 50.673460,41.680908 52.027626,41.878824 C 53.381793,42.066324 54.782835,42.352783 56.230751,42.738199 z M 23.902626,52.347574 C 25.163043,52.347574 26.064085,52.113199 26.605751,51.644449 C 27.157835,51.175699 27.433876,50.404866 27.433876,49.331949 C 27.433876,48.269449 27.157835,47.509033 26.605751,47.050699 C 26.064085,46.592366 25.163043,46.363199 23.902626,46.363199 L 21.371376,46.363199 L 21.371376,52.347574 L 23.902626,52.347574 z M 21.371376,56.503824 L 21.371376,65.331949 L 15.355751,65.331949 L 15.355751,42.003824 L 24.543251,42.003824 C 27.616168,42.003824 29.866168,42.519449 31.293251,43.550699 C 32.730751,44.581949 33.449501,46.212158 33.449501,48.441324 C 33.449501,49.982991 33.074501,51.248616 32.324501,52.238199 C 31.584918,53.227783 30.465126,53.956949 28.965126,54.425699 C 29.788043,54.613199 30.522418,55.040283 31.168251,55.706949 C 31.824501,56.363199 32.485960,57.363199 33.152626,58.706949 L 36.418251,65.331949 L 30.012001,65.331949 L 27.168251,59.535074 C 26.595335,58.368408 26.012001,57.571533 25.418251,57.144449 C 24.834918,56.717366 24.053668,56.503824 23.074501,56.503824 L 21.371376,56.503824 z "
         id="path959" />
      <path
         style="font-size:32.000000;font-weight:bold;stroke-width:1.0000000pt;font-family:Bitstream Vera Sans;fill:#ffffff;fill-opacity:1.0000000;"
         d="M 77.547614,41.008187 L 77.547614,45.945687 C 76.266364,45.372771 75.016364,44.940479 73.797614,44.648812 C 72.578864,44.357146 71.427823,44.211312 70.344489,44.211312 C 68.906989,44.211312 67.844489,44.409229 67.156989,44.805062 C 66.469489,45.200896 66.125739,45.815479 66.125739,46.648812 C 66.125739,47.273812 66.354906,47.763396 66.813239,48.117562 C 67.281989,48.461312 68.125739,48.758187 69.344489,49.008187 L 71.906989,49.523812 C 74.500739,50.044646 76.344489,50.836312 77.438239,51.898812 C 78.531989,52.961312 79.078864,54.471729 79.078864,56.430062 C 79.078864,59.002979 78.313239,60.919646 76.781989,62.180062 C 75.261156,63.430062 72.933031,64.055062 69.797614,64.055062 C 68.318448,64.055062 66.834073,63.914437 65.344489,63.633187 C 63.854906,63.351937 62.365323,62.935271 60.875739,62.383187 L 60.875739,57.305062 C 62.365323,58.096729 63.802823,58.695687 65.188239,59.101937 C 66.584073,59.497771 67.927823,59.695687 69.219489,59.695687 C 70.531989,59.695687 71.537198,59.476937 72.235114,59.039437 C 72.933031,58.601937 73.281989,57.976937 73.281989,57.164437 C 73.281989,56.435271 73.042406,55.872771 72.563239,55.476937 C 72.094489,55.081104 71.151781,54.726937 69.735114,54.414437 L 67.406989,53.898812 C 65.073656,53.398812 63.365323,52.601937 62.281989,51.508187 C 61.209073,50.414437 60.672614,48.940479 60.672614,47.086312 C 60.672614,44.763396 61.422614,42.976937 62.922614,41.726937 C 64.422614,40.476937 66.578864,39.851937 69.391364,39.851937 C 70.672614,39.851937 71.990323,39.950896 73.344489,40.148812 C 74.698656,40.336312 76.099698,40.622771 77.547614,41.008187 z M 54.500739,41.008187 L 54.500739,45.945687 C 53.219489,45.372771 51.969489,44.940479 50.750739,44.648812 C 49.531989,44.357146 48.380948,44.211312 47.297614,44.211312 C 45.860114,44.211312 44.797614,44.409229 44.110114,44.805062 C 43.422614,45.200896 43.078864,45.815479 43.078864,46.648812 C 43.078864,47.273812 43.308031,47.763396 43.766364,48.117562 C 44.235114,48.461312 45.078864,48.758187 46.297614,49.008187 L 48.860114,49.523812 C 51.453864,50.044646 53.297614,50.836312 54.391364,51.898812 C 55.485114,52.961312 56.031989,54.471729 56.031989,56.430062 C 56.031989,59.002979 55.266364,60.919646 53.735114,62.180062 C 52.214281,63.430062 49.886156,64.055062 46.750739,64.055062 C 45.271573,64.055062 43.787198,63.914437 42.297614,63.633187 C 40.808031,63.351937 39.318448,62.935271 37.828864,62.383187 L 37.828864,57.305062 C 39.318448,58.096729 40.755948,58.695687 42.141364,59.101937 C 43.537198,59.497771 44.880948,59.695687 46.172614,59.695687 C 47.485114,59.695687 48.490323,59.476937 49.188239,59.039437 C 49.886156,58.601937 50.235114,57.976937 50.235114,57.164437 C 50.235114,56.435271 49.995531,55.872771 49.516364,55.476937 C 49.047614,55.081104 48.104906,54.726937 46.688239,54.414437 L 44.360114,53.898812 C 42.026781,53.398812 40.318448,52.601937 39.235114,51.508187 C 38.162198,50.414437 37.625739,48.940479 37.625739,47.086312 C 37.625739,44.763396 38.375739,42.976937 39.875739,41.726937 C 41.375739,40.476937 43.531989,39.851937 46.344489,39.851937 C 47.625739,39.851937 48.943448,39.950896 50.297614,40.148812 C 51.651781,40.336312 53.052823,40.622771 54.500739,41.008187 z M 22.172614,50.617562 C 23.433031,50.617562 24.334073,50.383187 24.875739,49.914437 C 25.427823,49.445687 25.703864,48.674854 25.703864,47.601937 C 25.703864,46.539437 25.427823,45.779021 24.875739,45.320687 C 24.334073,44.862354 23.433031,44.633187 22.172614,44.633187 L 19.641364,44.633187 L 19.641364,50.617562 L 22.172614,50.617562 z M 19.641364,54.773812 L 19.641364,63.601937 L 13.625739,63.601937 L 13.625739,40.273812 L 22.813239,40.273812 C 25.886156,40.273812 28.136156,40.789437 29.563239,41.820687 C 31.000739,42.851937 31.719489,44.482146 31.719489,46.711312 C 31.719489,48.252979 31.344489,49.518604 30.594489,50.508187 C 29.854906,51.497771 28.735114,52.226937 27.235114,52.695687 C 28.058031,52.883187 28.792406,53.310271 29.438239,53.976937 C 30.094489,54.633187 30.755948,55.633187 31.422614,56.976937 L 34.688239,63.601937 L 28.281989,63.601937 L 25.438239,57.805062 C 24.865323,56.638396 24.281989,55.841521 23.688239,55.414437 C 23.104906,54.987354 22.323656,54.773812 21.344489,54.773812 L 19.641364,54.773812 z "
         id="path958" />
    </g>
    <g
       id="g1003"
       transform="matrix(1.227789,0.000000,0.000000,1.227789,-22.07163,-6.868363)"
       style="">
      <path
         style="fill:url(#linearGradient942);fill-rule:evenodd;stroke-width:1.0000000pt;"
         d="M 60.281864,76.194966 L 63.071025,92.030202 L 72.068318,92.210148 L 73.417912,74.755399 L 60.281864,76.194966 z "
         id="path931" />
      <path
         style="fill:url(#linearGradient941);fill-rule:evenodd;stroke-width:1.0000000pt;"
         d="M 78.449594,72.994379 L 89.451337,86.673361 L 96.872825,82.747931 L 89.159600,65.289383 L 78.449594,72.994379 z "
         id="path932"
         sodipodi:nodetypes="ccccc" />
      <path
         style="fill:url(#linearGradient940);fill-rule:evenodd;stroke-width:1.0000000pt;"
         d="M 91.945534,61.927709 L 110.14511,69.308585 L 114.41755,61.964184 L 99.236568,50.893714 L 91.945534,61.927709 z "
         id="path933"
         sodipodi:nodetypes="ccccc" />
      <path
         style="fill:url(#linearGradient939);fill-rule:evenodd;stroke-width:1.0000000pt;"
         d="M 101.07779,45.957514 L 118.42262,43.261421 L 118.73625,35.647102 L 102.43061,33.753871 L 101.07779,45.957514 z "
         id="path934"
         sodipodi:nodetypes="ccccc" />
      <path
         style="fill:#fdfdff;fill-rule:evenodd;stroke-width:1.0000000pt;"
         d="M 101.07779,43.888136 L 118.42262,42.106399 L 118.73625,37.074409 L 101.80080,35.823250 L 101.07779,43.888136 z "
         id="path935"
         sodipodi:nodetypes="ccccc" />
      <path
         style="fill:#eeeef3;fill-rule:evenodd;stroke-width:1.0000000pt;"
         d="M 92.755290,59.694061 L 110.79824,68.277555 L 113.78774,63.138554 L 97.856949,51.973390 L 92.755290,59.694061 z "
         id="path936"
         sodipodi:nodetypes="ccccc" />
      <path
         style="fill:#e6e6eb;fill-rule:evenodd;stroke-width:1.0000000pt;"
         d="M 79.709215,71.464642 L 90.724978,86.148018 L 96.153042,83.276966 L 87.542495,65.829221 L 79.709215,71.464642 z "
         id="path937"
         sodipodi:nodetypes="ccccc" />
      <path
         style="fill:#dddde4;fill-rule:evenodd;stroke-width:1.0000000pt;"
         d="M 62.621160,75.565155 L 64.416921,92.030202 L 70.209699,92.210148 L 71.078616,74.755399 L 62.621160,75.565155 z "
         id="path938"
         sodipodi:nodetypes="ccccc" />
      <path
         style="fill:url(#linearGradient948);fill-rule:evenodd;stroke:none;stroke-width:1.0000000pt;stroke-linejoin:round;stroke-opacity:1.0;fill-opacity:1.0;"
         d="M 99.062500 50.281250 A 0.62506250 0.62506250 0.0000000 0 0 98.718750 50.562500 L 91.437500 61.593750 A 0.62506250 0.62506250 0.0000000 0 0 91.718750 62.500000 L 109.90625 69.875000 A 0.62506250 0.62506250 0.0000000 0 0 110.68750 69.625000 L 114.96875 62.281250 A 0.62506250 0.62506250 0.0000000 0 0 114.78125 61.468750 L 99.593750 50.375000 A 0.62506250 0.62506250 0.0000000 0 0 99.062500 50.281250 z M 99.406250 51.781250 L 113.59375 62.125000 L 109.87500 68.531250 L 92.906250 61.625000 L 99.406250 51.781250 z "
         id="path996" />
      <path
         style="fill:url(#linearGradient950);fill-rule:evenodd;stroke:none;stroke-width:1.0000000pt;stroke-linejoin:round;stroke-opacity:1.0;fill-opacity:1.0;"
         d="M 102.31250 33.125000 A 0.62506250 0.62506250 0.0000000 0 0 101.81250 33.687500 L 100.46875 45.875000 A 0.62506250 0.62506250 0.0000000 0 0 101.18750 46.562500 L 118.53125 43.875000 A 0.62506250 0.62506250 0.0000000 0 0 119.06250 43.281250 L 119.37500 35.687500 A 0.62506250 0.62506250 0.0000000 0 0 118.81250 35.031250 L 102.50000 33.125000 A 0.62506250 0.62506250 0.0000000 0 0 102.31250 33.125000 z M 103.00000 34.437500 L 118.09375 36.218750 L 117.84375 42.718750 L 101.78125 45.218750 L 103.00000 34.437500 z "
         id="path997" />
      <path
         style="fill:url(#linearGradient946);fill-rule:evenodd;stroke:none;stroke-width:1.0000000pt;stroke-linejoin:round;stroke-opacity:1.0;fill-opacity:1.0;"
         d="M 89.062500 64.656250 A 0.62506250 0.62506250 0.0000000 0 0 88.781250 64.781250 L 78.093750 72.500000 A 0.62506250 0.62506250 0.0000000 0 0 77.968750 73.375000 L 88.968750 87.062500 A 0.62506250 0.62506250 0.0000000 0 0 89.750000 87.218750 L 97.156250 83.312500 A 0.62506250 0.62506250 0.0000000 0 0 97.437500 82.500000 L 89.718750 65.031250 A 0.62506250 0.62506250 0.0000000 0 0 89.062500 64.656250 z M 88.906250 66.218750 L 96.062500 82.468750 L 89.625000 85.875000 L 79.343750 73.125000 L 88.906250 66.218750 z "
         id="path998" />
      <path
         style="fill:url(#linearGradient944);fill-rule:evenodd;stroke:none;stroke-width:1.0000000pt;stroke-linejoin:round;stroke-opacity:1.0;fill-opacity:1.0;"
         d="M 73.343750 74.125000 L 60.218750 75.562500 A 0.62506250 0.62506250 0.0000000 0 0 59.656250 76.312500 L 62.468750 92.125000 A 0.62506250 0.62506250 0.0000000 0 0 63.062500 92.656250 L 72.062500 92.843750 A 0.62506250 0.62506250 0.0000000 0 0 72.687500 92.250000 L 74.031250 74.812500 A 0.62506250 0.62506250 0.0000000 0 0 73.343750 74.125000 z M 72.718750 75.468750 L 71.468750 91.593750 L 63.593750 91.406250 L 61.031250 76.750000 L 72.718750 75.468750 z "
         id="path999" />
      <path
         style="fill:#b9b9c8;fill-rule:evenodd;stroke-width:4.3084631;"
         d="M 97.490705,33.421711 L 97.456654,36.710612 C 97.456654,55.002344 83.187633,69.815287 65.206654,70.965644 L 59.640572,71.053556 L 59.640572,76.308186 L 65.206654,76.252493 C 86.051434,75.085182 102.73790,57.861420 102.73791,36.710612 L 102.77196,33.421711 L 97.490705,33.421711 z "
         id="path930"
         sodipodi:nodetypes="ccccccccc" />
      <path
         style="fill:#fdfdff;fill-rule:evenodd;stroke-width:4.3084631;"
         d="M 97.490705,33.612572 L 97.456654,36.710612 C 97.456654,55.002344 83.187633,69.815287 65.206654,70.965644 L 59.704192,71.053556 L 59.704192,73.508886 L 65.206654,73.453193 C 82.859206,73.274523 99.715928,57.861420 99.715938,36.710612 L 99.749988,33.612572 L 97.490705,33.612572 z "
         id="path954"
         sodipodi:nodetypes="cccccsccc" />
      <path
         style="fill:url(#linearGradient952);fill-rule:evenodd;stroke:none;stroke-width:1.4375000;stroke-linejoin:round;stroke-dasharray:none;stroke-opacity:1.0;fill-opacity:1.0;"
         d="M 97.343750,32.361554 C 97.020145,32.433587 96.787776,32.717593 96.781250,33.049054 L 96.750000,36.687500 C 96.749774,36.697915 96.749774,36.708335 96.750000,36.718750 C 96.749997,54.626043 82.785519,69.107990 65.187500,70.250000 C 65.177034,70.250679 65.166718,70.249330 65.156250,70.250000 L 59.296813,70.343750 C 58.912129,70.360528 58.608986,70.677451 58.609313,71.062500 L 58.609313,76.312500 C 58.609353,76.709438 58.931125,77.031210 59.328063,77.031250 L 65.218750,76.968750 C 65.229165,76.968976 65.239585,76.968976 65.250000,76.968750 C 86.467471,75.780566 103.46874,58.247586 103.46875,36.718750 L 103.50000,33.080304 C 103.49996,32.683366 103.17819,32.361594 102.78125,32.361554 L 97.500000,32.361554 C 97.448071,32.355877 97.395679,32.355877 97.343750,32.361554 z M 98.218750,33.799054 L 102.06250,33.799054 L 102.03125,36.687500 C 102.03102,36.697915 102.03102,36.708335 102.03125,36.718750 C 102.03124,57.480920 85.644945,74.369307 65.187500,75.531250 C 65.177046,75.531844 65.166707,75.530664 65.156250,75.531250 L 60.046813,75.593750 L 60.046813,71.781250 L 65.218750,71.687500 C 65.229165,71.687726 65.239585,71.687726 65.250000,71.687500 C 83.599133,70.513590 98.187497,55.384269 98.187500,36.718750 L 98.218750,33.799054 z "
         id="path1002"
         sodipodi:nodetypes="ccccccccccccccccccccccccccccc" />
    </g>
  </g>
</svg>
