<?xml version="1.0" encoding="UTF-8" standalone="no"?>
<!-- Created with Inkscape (http://www.inkscape.org/) -->
<svg
   xmlns:dc="http://purl.org/dc/elements/1.1/"
   xmlns:cc="http://web.resource.org/cc/"
   xmlns:rdf="http://www.w3.org/1999/02/22-rdf-syntax-ns#"
   xmlns:svg="http://www.w3.org/2000/svg"
   xmlns="http://www.w3.org/2000/svg"
   xmlns:sodipodi="http://inkscape.sourceforge.net/DTD/sodipodi-0.dtd"
   xmlns:inkscape="http://www.inkscape.org/namespaces/inkscape"
   inkscape:export-ydpi="192.00000"
   inkscape:export-xdpi="192.00000"
   inkscape:export-filename="/home/danny/128.png"
   sodipodi:docname="ksimon.svgz"
   sodipodi:docbase="/home/danny/CVS/playground/edu/ksimon/icons"
   inkscape:version="0.41"
   sodipodi:version="0.32"
   id="svg1"
   height="48.000000pt"
   width="48.000000pt">
  <defs
     id="defs3" />
  <sodipodi:namedview
     inkscape:window-y="0"
     inkscape:window-x="0"
     inkscape:window-height="690"
     inkscape:window-width="1020"
     inkscape:current-layer="svg1"
     inkscape:cy="20.053237"
     inkscape:cx="33.227948"
     inkscape:zoom="3.2455433"
     inkscape:pageshadow="2"
     inkscape:pageopacity="0.0000000"
     borderopacity="1.0"
     bordercolor="#666666"
     pagecolor="#ffffff"
     id="base" />
  <metadata
     id="metadata4">
    <rdf:RDF
       id="RDF5">
      <cc:Work
         id="Work6"
         rdf:about="">
        <dc:format
           id="format7">image/svg+xml</dc:format>
        <dc:type
           rdf:resource="http://purl.org/dc/dcmitype/StillImage"
           id="type9" />
      </cc:Work>
    </rdf:RDF>
  </metadata>
  <g
     id="layer1"
     inkscape:groupmode="layer"
     inkscape:label="Layer 1" />
  <g
     transform="matrix(1.011230,0.000000,0.000000,1.011230,-0.336899,-0.336900)"
     id="g2063">
    <g
       transform="matrix(1.098681,0.000000,0.000000,1.098681,-2.960297,-2.960434)"
       id="g2099">
      <path
         style="color:#000000;fill:#7fbb55;fill-opacity:1.0000000;fill-rule:evenodd;stroke:#4f4f4f;stroke-width:0.0000000;stroke-linecap:round;stroke-linejoin:round;stroke-miterlimit:4.0000000;stroke-dashoffset:0.0000000;stroke-opacity:1.0000000;marker:none;marker-start:none;marker-mid:none;marker-end:none"
         d="M 29.656250,29.875000 L 20.593750,45.718750 C 20.680257,45.769542 20.756655,45.824715 20.843750,45.875000 C 33.829529,53.372397 48.435135,52.370520 53.531250,43.687500 L 29.656250,29.875000 z "
         id="path2087"
         sodipodi:nodetypes="ccccc" />
      <path
         style="color:#000000;fill:#ee5f4c;fill-opacity:1.0000000;fill-rule:evenodd;stroke:#000000;stroke-width:0.0000000;stroke-linecap:round;stroke-linejoin:round;stroke-miterlimit:4.0000000;stroke-dashoffset:0.0000000;stroke-opacity:1.0000000;marker:none;marker-start:none;marker-mid:none;marker-end:none"
         d="M 38.781250,13.937500 L 29.656250,29.875000 L 53.531250,43.687500 C 53.546357,43.661759 53.578810,43.650876 53.593750,43.625000 C 58.648214,34.870405 52.180526,21.644623 39.156250,14.125000 C 39.031985,14.053255 38.905812,14.007683 38.781250,13.937500 z "
         id="path2089"
         sodipodi:nodetypes="cccccc" />
      <path
         style="color:#000000;fill:#5e8fcb;fill-opacity:1.0000000;fill-rule:evenodd;stroke:#4f4f4f;stroke-width:0.0000000;stroke-linecap:round;stroke-linejoin:round;stroke-miterlimit:4.0000000;stroke-dashoffset:0.0000000;stroke-opacity:1.0000000;marker:none;marker-start:none;marker-mid:none;marker-end:none"
         d="M 6.3750000,16.437500 C 1.4193590,25.133664 7.7741140,38.191789 20.593750,45.718750 L 29.656250,29.875000 L 6.3750000,16.437500 z "
         id="path2082" />
      <path
         style="color:#000000;fill:#ffe940;fill-opacity:1.0000000;fill-rule:evenodd;stroke:#000000;stroke-width:0.0000000;stroke-linecap:round;stroke-linejoin:round;stroke-miterlimit:4.0000000;stroke-dashoffset:0.0000000;stroke-opacity:1.0000000;marker:none;marker-start:none;marker-mid:none;marker-end:none"
         d="M 19.781250,9.1562500 C 13.853258,9.5611954 8.9334830,11.997703 6.4062500,16.375000 C 6.3944620,16.395417 6.3866630,16.417034 6.3750000,16.437500 L 29.656250,29.875000 L 38.781250,13.937500 C 32.378062,10.329722 25.596124,8.7590318 19.781250,9.1562500 z "
         id="path2933" />
    </g>
    <path
       id="path5375"
       d="M 43.757635,37.943074 C 39.373012,45.537470 29.650911,48.142503 22.056514,43.757881 C 14.462119,39.373259 11.857086,29.651157 16.241708,22.056761 C 20.626331,14.462366 30.348432,11.857333 37.942828,16.241954 C 45.537224,20.626577 48.142257,30.348679 43.757635,37.943074 z "
       style="color:#000000;fill:#3d3d3d;fill-opacity:1.0000000;fill-rule:evenodd;stroke:#000000;stroke-width:2.4722385;stroke-linecap:round;stroke-linejoin:round;stroke-miterlimit:4.0000000;stroke-dashoffset:0.0000000;stroke-opacity:1.0000000;marker:none;marker-start:none;marker-mid:none;marker-end:none" />
    <path
       id="path5399"
       d="M 55.923052,44.966788 C 50.369808,54.585295 34.249300,55.686497 19.939776,47.424832 C 5.6302514,39.163165 -1.4762956,24.651719 4.0769477,15.033212 C 9.6301906,5.4147060 25.750697,4.3135020 40.060223,12.575169 C 54.369747,20.836836 61.476294,35.348282 55.923052,44.966788 z "
       style="color:#000000;fill:none;fill-opacity:1.0000000;fill-rule:evenodd;stroke:#000000;stroke-width:2.4722373;stroke-linecap:round;stroke-linejoin:round;stroke-miterlimit:4.0000000;stroke-dashoffset:0.0000000;stroke-opacity:1.0000000;marker:none;marker-start:none;marker-mid:none;marker-end:none" />
    <path
       sodipodi:nodetypes="cc"
       id="path2160"
       d="M 19.908140,47.480450 L 22.286684,43.360688"
       style="fill:none;fill-opacity:0.75000000;fill-rule:evenodd;stroke:#000000;stroke-width:2.4722388;stroke-linecap:butt;stroke-linejoin:miter;stroke-miterlimit:4.0000000;stroke-opacity:1.0000000" />
    <path
       sodipodi:nodetypes="cc"
       id="path2920"
       d="M 37.714262,16.639319 L 40.092806,12.519559"
       style="fill:none;fill-opacity:0.75000000;fill-rule:evenodd;stroke:#000000;stroke-width:2.4722388;stroke-linecap:butt;stroke-linejoin:miter;stroke-miterlimit:4.0000000;stroke-opacity:1.0000000" />
    <path
       id="path2928"
       d="M 4.0121294,14.995637 L 16.639789,22.286215"
       style="fill:none;fill-opacity:0.75000000;fill-rule:evenodd;stroke:#000000;stroke-width:2.4722388;stroke-linecap:butt;stroke-linejoin:miter;stroke-miterlimit:4.0000000;stroke-opacity:1.0000000" />
    <path
       id="path2930"
       d="M 43.361159,37.713794 L 55.988817,45.004370"
       style="fill:none;fill-opacity:0.75000000;fill-rule:evenodd;stroke:#000000;stroke-width:2.4722388;stroke-linecap:butt;stroke-linejoin:miter;stroke-miterlimit:4.0000000;stroke-opacity:1.0000000" />
    <g
       transform="matrix(6.333947e-2,3.656903e-2,-3.562383e-2,6.170232e-2,24.09357,-1.379237)"
       id="g2180"
       style="fill:#cccccc;fill-opacity:1.0000000">
      <path
         d="M 182.81250,241.87500 L 156.90625,267.81250 L 179.53125,303.71875 C 175.71390,310.33399 172.67296,317.43534 170.46875,324.90625 L 129.56250,335.46875 L 129.56250,368.56250 L 170.68750,381.43750 C 172.80792,388.39718 175.69213,395.00503 179.21875,401.21875 L 155.46875,433.34375 L 182.81250,460.68750 L 213.34375,436.53125 C 220.78782,441.12382 228.85519,444.75868 237.43750,447.25000 L 246.87500,490.93750 L 281.43750,490.93750 L 288.75000,448.21875 C 297.41254,446.05182 305.60304,442.70007 313.18750,438.40625 L 345.50000,462.12500 L 371.40625,433.34375 L 366.07582,419.12039 L 349.85707,425.96414 L 329.90625,400.21875 C 315.23305,420.26336 291.59736,433.34375 264.87500,433.34375 C 220.37511,433.34375 184.25000,397.21864 184.25000,352.71875 C 184.25000,321.16303 202.47047,293.91634 228.90625,280.68750 L 228.90625,261.12500 C 225.03054,262.64969 221.30617,264.45493 217.68750,266.43750 L 182.81250,241.87500 z "
         style="fill-rule:evenodd;stroke:none;stroke-width:1.0000000pt;stroke-linecap:butt;stroke-linejoin:miter;stroke-opacity:1.0000000"
         id="path920" />
      <path
         d="M 237.17711,215.20644 L 237.17711,413.19334 L 288.58245,409.63060 L 289.09141,325.65158 L 352.20292,417.26505 L 404.11722,399.96029 L 339.47882,309.87370 L 339.47882,308.85577 L 402.08137,226.40364 L 349.14914,209.09888 L 286.03763,297.14961 L 288.53763,209.60784 L 237.17711,215.20644 z "
         style="fill-rule:evenodd;stroke:none;stroke-width:1.0000000pt;stroke-linecap:butt;stroke-linejoin:miter;stroke-opacity:1.0000000"
         id="path1553" />
    </g>
  </g>
</svg>
