<?xml version="1.0" encoding="UTF-8" standalone="no"?>
<!-- Created with Inkscape (http://www.inkscape.org/) -->
<svg
   xmlns:dc="http://purl.org/dc/elements/1.1/"
   xmlns:cc="http://web.resource.org/cc/"
   xmlns:rdf="http://www.w3.org/1999/02/22-rdf-syntax-ns#"
   xmlns:svg="http://www.w3.org/2000/svg"
   xmlns="http://www.w3.org/2000/svg"
   xmlns:xlink="http://www.w3.org/1999/xlink"
   xmlns:sodipodi="http://sodipodi.sourceforge.net/DTD/sodipodi-0.dtd"
   xmlns:inkscape="http://www.inkscape.org/namespaces/inkscape"
   version="1.0"
   width="128"
   height="128"
   id="svg2"
   sodipodi:version="0.32"
   inkscape:version="0.45.1"
   sodipodi:docname="temp.svgz"
   sodipodi:docbase="/home/smajewsky/wc/kdiamond/themes"
   inkscape:output_extension="org.inkscape.output.svgz.inkscape">
  <metadata
     id="metadata513">
    <rdf:RDF>
      <cc:Work
         rdf:about="">
        <dc:format>image/svg+xml</dc:format>
        <dc:type
           rdf:resource="http://purl.org/dc/dcmitype/StillImage" />
      </cc:Work>
    </rdf:RDF>
  </metadata>
  <sodipodi:namedview
     inkscape:window-height="847"
     inkscape:window-width="1440"
     inkscape:pageshadow="2"
     inkscape:pageopacity="0.0"
     guidetolerance="10.0"
     gridtolerance="10.0"
     objecttolerance="10.0"
     borderopacity="1.0"
     bordercolor="#666666"
     pagecolor="#ffffff"
     id="base"
     inkscape:zoom="0.69605824"
     inkscape:cx="490.73007"
     inkscape:cy="95.135632"
     inkscape:window-x="0"
     inkscape:window-y="0"
     inkscape:current-layer="svg2"
     showguides="true"
     inkscape:guide-bbox="true"
     width="128px"
     height="128px">
    <sodipodi:guide
       orientation="vertical"
       position="170.24438"
       id="guide2446" />
    <sodipodi:guide
       orientation="vertical"
       position="247.20678"
       id="guide2448" />
    <sodipodi:guide
       orientation="vertical"
       position="212.62589"
       id="guide2450" />
  </sodipodi:namedview>
  <defs
     id="defs4">
    <linearGradient
       id="linearGradient3602">
      <stop
         id="stop3604"
         offset="0"
         style="stop-color:#ffffff;stop-opacity:1;" />
      <stop
         style="stop-color:#bedeff;stop-opacity:0.34509805;"
         offset="0.5"
         id="stop3606" />
      <stop
         id="stop3608"
         offset="1"
         style="stop-color:#0086ff;stop-opacity:0;" />
    </linearGradient>
    <linearGradient
       id="linearGradient3588">
      <stop
         style="stop-color:#ffffff;stop-opacity:1;"
         offset="0"
         id="stop3590" />
      <stop
         id="stop3596"
         offset="0.5"
         style="stop-color:#bef8ff;stop-opacity:0.34586465;" />
      <stop
         style="stop-color:#00f5ff;stop-opacity:0"
         offset="1"
         id="stop3592" />
    </linearGradient>
    <linearGradient
       id="linearGradient5918">
      <stop
         style="stop-color:#131313;stop-opacity:1;"
         offset="0"
         id="stop5920" />
      <stop
         id="stop5926"
         offset="0.36454707"
         style="stop-color:#333333;stop-opacity:1;" />
      <stop
         style="stop-color:#333333;stop-opacity:1;"
         offset="0.69608772"
         id="stop5928" />
      <stop
         style="stop-color:#131313;stop-opacity:1;"
         offset="1"
         id="stop5922" />
    </linearGradient>
    <linearGradient
       id="linearGradient5798">
      <stop
         id="stop5800"
         offset="0"
         style="stop-color:#6a0056;stop-opacity:1" />
      <stop
         id="stop5802"
         offset="1"
         style="stop-color:#50003b;stop-opacity:1" />
    </linearGradient>
    <linearGradient
       id="linearGradient5792">
      <stop
         style="stop-color:#e20071;stop-opacity:1"
         offset="0"
         id="stop5794" />
      <stop
         style="stop-color:#6a0056;stop-opacity:0"
         offset="1"
         id="stop5796" />
    </linearGradient>
    <linearGradient
       id="linearGradient4347">
      <stop
         id="stop4349"
         offset="0"
         style="stop-color:#e20800;stop-opacity:1" />
      <stop
         id="stop4351"
         offset="1"
         style="stop-color:#bf0303;stop-opacity:0" />
    </linearGradient>
    <linearGradient
       id="linearGradient4340">
      <stop
         style="stop-color:#9c0f0f;stop-opacity:1"
         offset="0"
         id="stop4342" />
      <stop
         style="stop-color:#590000;stop-opacity:1"
         offset="1"
         id="stop4344" />
    </linearGradient>
    <linearGradient
       inkscape:collect="always"
       id="linearGradient6254">
      <stop
         style="stop-color:#ffffff;stop-opacity:1;"
         offset="0"
         id="stop6256" />
      <stop
         style="stop-color:#ffffff;stop-opacity:0;"
         offset="1"
         id="stop6258" />
    </linearGradient>
    <linearGradient
       inkscape:collect="always"
       id="linearGradient6153">
      <stop
         style="stop-color:#f7e1e3;stop-opacity:1;"
         offset="0"
         id="stop6155" />
      <stop
         style="stop-color:#f7e1e3;stop-opacity:0;"
         offset="1"
         id="stop6157" />
    </linearGradient>
    <linearGradient
       id="linearGradient10156">
      <stop
         style="stop-color:#000000;stop-opacity:0"
         offset="0"
         id="stop10158" />
      <stop
         style="stop-color:#000000;stop-opacity:1"
         offset="1"
         id="stop10160" />
    </linearGradient>
    <linearGradient
       id="linearGradient2231">
      <stop
         id="stop2233"
         offset="0"
         style="stop-color:#be689d;stop-opacity:1;" />
      <stop
         id="stop2235"
         offset="1"
         style="stop-color:#dcbdc1;stop-opacity:1" />
    </linearGradient>
    <linearGradient
       id="linearGradient4271">
      <stop
         id="stop4273"
         offset="0"
         style="stop-color:#463038;stop-opacity:1" />
      <stop
         style="stop-color:#a03f72;stop-opacity:1;"
         offset="0.5"
         id="stop4261" />
      <stop
         id="stop4263"
         offset="1"
         style="stop-color:#f0d8e5;stop-opacity:1" />
    </linearGradient>
    <pattern
       patternUnits="userSpaceOnUse"
       width="64.25"
       height="64"
       patternTransform="translate(-86.080759,3.7985953)"
       id="pattern7510">
      <g
         id="g7499"
         inkscape:label="Layer 1">
        <g
           id="g2165">
          <rect
             y="0"
             x="0"
             height="64"
             width="64"
             id="rect2163"
             style="opacity:1;fill:#2e3436;fill-opacity:1;stroke:none;stroke-width:1.5;stroke-linecap:round;stroke-linejoin:round;stroke-miterlimit:4;stroke-dasharray:none;stroke-dashoffset:0;stroke-opacity:1" />
          <rect
             y="32"
             x="0"
             height="32"
             width="32"
             id="rect2165"
             style="opacity:1;fill:#555753;fill-opacity:1;stroke:none;stroke-width:1.5;stroke-linecap:round;stroke-linejoin:round;stroke-miterlimit:4;stroke-dasharray:none;stroke-dashoffset:0;stroke-opacity:1" />
          <rect
             style="opacity:1;fill:#555753;fill-opacity:1;stroke:none;stroke-width:1.5;stroke-linecap:round;stroke-linejoin:round;stroke-miterlimit:4;stroke-dasharray:none;stroke-dashoffset:0;stroke-opacity:1"
             id="rect2167"
             width="32"
             height="32"
             x="32"
             y="0" />
          <path
             id="path2169"
             d="M 31.625,0.71875 L 31.625,31.375 L 0,31.375 L 0,32.375 L 31.625,32.375 L 31.625,64 L 32.625,64 L 32.625,32.375 L 64.25,32.375 L 64.25,31.375 L 32.625,31.375 L 32.625,0.71875 L 31.625,0.71875 z "
             style="fill:url(#radialGradient7522);fill-opacity:1;fill-rule:evenodd;stroke:none;stroke-width:1px;stroke-linecap:butt;stroke-linejoin:miter;stroke-opacity:1" />
        </g>
        <use
           x="0"
           y="0"
           xlink:href="#g2165"
           id="use2181"
           transform="matrix(0.434917,0,0,0.434917,2.2490804,1.9277832)"
           width="64"
           height="64" />
        <use
           height="64"
           width="64"
           transform="matrix(0.434917,0,0,0.434917,34.24908,1.9277832)"
           id="use2183"
           xlink:href="#g2165"
           y="0"
           x="0" />
        <use
           x="0"
           y="0"
           xlink:href="#g2165"
           id="use2185"
           transform="matrix(0.434917,0,0,0.434917,34.24908,34.24908)"
           width="64"
           height="64" />
        <use
           height="64"
           width="64"
           transform="matrix(0.434917,0,0,0.434917,2.24908,34.24908)"
           id="use2187"
           xlink:href="#g2165"
           y="0"
           x="0" />
      </g>
    </pattern>
    <linearGradient
       inkscape:collect="always"
       xlink:href="#linearGradient4340"
       id="linearGradient6328"
       gradientUnits="userSpaceOnUse"
       x1="-395.2381"
       y1="67.85714"
       x2="-313.09525"
       y2="193.45238" />
    <radialGradient
       inkscape:collect="always"
       xlink:href="#linearGradient4347"
       id="radialGradient6330"
       gradientUnits="userSpaceOnUse"
       gradientTransform="matrix(0.9880639,-0.3830861,0.1915102,0.4939473,-14.727154,-106.69141)"
       cx="-395.2381"
       cy="52.266468"
       fx="-395.2381"
       fy="52.266468"
       r="138.09525" />
    <radialGradient
       inkscape:collect="always"
       xlink:href="#linearGradient6153"
       id="radialGradient6332"
       gradientUnits="userSpaceOnUse"
       gradientTransform="matrix(1,0,0,0.4135551,0,120.10208)"
       cx="-664.89136"
       cy="334.33566"
       fx="-664.89136"
       fy="334.33566"
       r="138.09375" />
    <linearGradient
       inkscape:collect="always"
       xlink:href="#linearGradient6254"
       id="linearGradient6334"
       gradientUnits="userSpaceOnUse"
       gradientTransform="translate(-300,0)"
       x1="-363.39062"
       y1="146.61179"
       x2="-351.19196"
       y2="265.65939" />
    <linearGradient
       inkscape:collect="always"
       xlink:href="#linearGradient6254"
       id="linearGradient6336"
       gradientUnits="userSpaceOnUse"
       x1="-694.55206"
       y1="20.239584"
       x2="-679.26337"
       y2="211.90625" />
    <linearGradient
       inkscape:collect="always"
       xlink:href="#linearGradient6254"
       id="linearGradient6338"
       gradientUnits="userSpaceOnUse"
       x1="-1217.756"
       y1="164.28125"
       x2="-568.25757"
       y2="164.28125" />
    <radialGradient
       inkscape:collect="always"
       xlink:href="#linearGradient6254"
       id="radialGradient8276"
       gradientUnits="userSpaceOnUse"
       cx="103.47222"
       cy="59.722221"
       fx="103.47222"
       fy="59.722221"
       r="9.0277777" />
    <radialGradient
       inkscape:collect="always"
       xlink:href="#linearGradient6254"
       id="radialGradient8339"
       gradientUnits="userSpaceOnUse"
       cx="103.47222"
       cy="59.722221"
       fx="103.47222"
       fy="59.722221"
       r="9.0277777" />
  </defs>
  <g
     id="g5804"
     transform="translate(-28.13349,-470.50543)">
    <rect
       id="rect5116"
       style="opacity:1;color:#000000;fill:#000000;fill-opacity:0;fill-rule:nonzero;stroke:none;stroke-width:5;stroke-linecap:round;stroke-linejoin:round;marker:none;marker-start:none;marker-mid:none;marker-end:none;stroke-miterlimit:4;stroke-dasharray:none;stroke-dashoffset:0;stroke-opacity:0.70588235;visibility:visible;display:inline;overflow:visible"
       y="470.50543"
       x="28.13349"
       height="128"
       width="128" />
    <g
       id="g6301"
       transform="matrix(0.3547928,0,0,0.3547928,330.14191,481.39186)">
      <path
         transform="translate(-300,0)"
         d="M -232.7381 149.70238 A 138.09525 112.20238 0 1 1  -508.92859,149.70238 A 138.09525 112.20238 0 1 1  -232.7381 149.70238 z"
         sodipodi:ry="112.20238"
         sodipodi:rx="138.09525"
         sodipodi:cy="149.70238"
         sodipodi:cx="-370.83334"
         id="path6134"
         style="opacity:1;fill:url(#linearGradient6328);fill-opacity:1;stroke:none;stroke-width:0.30000001;stroke-linecap:round;stroke-linejoin:round;stroke-miterlimit:4;stroke-dasharray:none;stroke-dashoffset:0;stroke-opacity:1"
         sodipodi:type="arc" />
      <path
         sodipodi:type="arc"
         style="opacity:1;fill:url(#radialGradient6330);fill-opacity:1;stroke:#9c0f0f;stroke-width:5.63709307;stroke-linecap:round;stroke-linejoin:round;stroke-miterlimit:4;stroke-dasharray:none;stroke-dashoffset:0;stroke-opacity:1"
         id="path6222"
         sodipodi:cx="-370.83334"
         sodipodi:cy="149.70238"
         sodipodi:rx="138.09525"
         sodipodi:ry="112.20238"
         d="M -232.7381 149.70238 A 138.09525 112.20238 0 1 1  -508.92859,149.70238 A 138.09525 112.20238 0 1 1  -232.7381 149.70238 z"
         transform="translate(-300,0)" />
      <path
         id="path6205"
         d="M -617.85714,248.80952 C -614.88095,238.09524 -611.30952,220.83333 -626.19048,217.2619 C -641.07143,213.69048 -645.83333,211.30952 -658.92857,213.69048 C -672.02381,216.07143 -677.38095,218.45238 -695.83333,216.66667 C -714.28571,214.88095 -742.85714,244.64286 -733.92857,247.61905 C -725,250.59524 -688.69048,263.09524 -658.92857,260.11905 C -629.16667,257.14286 -617.2619,250.59524 -617.85714,248.80952 z "
         style="fill:#9c0f0f;fill-opacity:1;fill-rule:evenodd;stroke:none;stroke-width:1px;stroke-linecap:butt;stroke-linejoin:miter;stroke-opacity:1" />
      <path
         id="path6144"
         d="M -808.90625,147.6875 C -808.9208,148.35782 -808.9375,149.01438 -808.9375,149.6875 C -808.9375,211.62321 -747.07229,261.90625 -670.84375,261.90625 C -594.61517,261.90625 -532.75,211.62321 -532.75,149.6875 C -532.75,149.01425 -532.76669,148.35794 -532.78125,147.6875 C -534.09204,208.70453 -595.43488,257.90625 -670.84375,257.90625 C -746.25274,257.90625 -807.59569,208.70469 -808.90625,147.6875 z "
         style="opacity:1;fill:url(#radialGradient6332);fill-opacity:1;stroke:none;stroke-width:0.30000001;stroke-linecap:round;stroke-linejoin:round;stroke-miterlimit:4;stroke-dasharray:none;stroke-dashoffset:0;stroke-opacity:1" />
      <path
         id="path6190"
         d="M -638.09524,72.619048 L -624.40476,52.380952 C -624.40476,52.380952 -597.61905,67.261905 -586.30952,75 C -575,82.738095 -543.45238,117.85714 -547.02381,119.64286 C -550.59524,121.42857 -569.64286,122.02381 -569.04762,115.47619 C -568.45238,108.92857 -570.83333,91.071429 -579.7619,91.666667 C -588.69048,92.261905 -593.45238,92.261905 -605.35714,88.095238 C -617.2619,83.928571 -640.47619,77.97619 -638.09524,72.619048 z "
         style="fill:#e20800;fill-opacity:1;fill-rule:evenodd;stroke:none;stroke-width:1px;stroke-linecap:butt;stroke-linejoin:miter;stroke-opacity:1" />
      <path
         id="path6198"
         d="M -707.15625,44.0625 C -731.44889,47.869717 -762.00987,59.677765 -777.375,77.96875 C -794.43281,98.274739 -802.96874,118.4375 -802.96875,118.4375 L -788.6875,125.59375 L -782.15625,132.15625 L -784.53125,138.6875 L -769.65625,146.4375 L -764.875,138.6875 C -764.875,138.6875 -775.58929,136.31994 -777.375,133.34375 C -779.16072,130.36756 -772.03422,125.60268 -770.84375,122.03125 C -769.65328,118.45982 -786.90326,111.91666 -788.09375,107.75 C -789.28422,103.58333 -780.35415,107.74405 -776.1875,110.125 C -772.02083,112.50595 -772.625,117.84375 -772.625,117.84375 C -772.625,117.84375 -767.85714,114.88095 -762.5,112.5 C -757.14286,110.11905 -758.32143,114.28571 -754.75,112.5 C -751.17858,110.71429 -756.53868,104.16965 -753.5625,98.8125 C -750.58631,93.455357 -748.80506,92.260417 -739.28125,88.09375 C -729.75744,83.927083 -734.5268,80.94643 -736.3125,77.375 C -738.09822,73.803572 -733.93156,77.36905 -723.8125,79.75 C -713.69346,82.130952 -709.51487,76.787202 -703.5625,74.40625 C -697.61012,72.025298 -716.05953,60.132441 -717.25,57.15625 C -718.44048,54.18006 -694.65626,55.34375 -694.65625,55.34375 L -693.4375,47.03125 L -707.15625,44.0625 z M -743.4375,101.1875 L -750,107.15625 L -738.09375,105.9375 L -743.4375,101.1875 z M -753.5625,114.28125 L -766.65625,122.625 L -763.09375,129.75 L -751.78125,121.4375 L -753.5625,114.28125 z "
         style="fill:#e20800;fill-opacity:1;fill-rule:evenodd;stroke:none;stroke-width:1px;stroke-linecap:butt;stroke-linejoin:miter;stroke-opacity:1" />
      <path
         id="path6161"
         d="M -724.40625,46.4375 L -734.53125,54.75 L -747.03125,60.125 L -748.21875,65.46875 L -768.4375,79.15625 L -766.65625,79.75 L -743.4375,66.0625 L -728.5625,71.4375 L -725,70.25 L -727.375,60.71875 L -723.8125,50.59375 L -724.40625,46.4375 z M -626.78125,52.96875 L -629.15625,67.25 L -600.59375,85.125 L -591.0625,73.8125 L -608.34375,64.875 L -605.34375,58.9375 L -626.78125,52.96875 z M -751.1875,72.03125 L -760.125,77.375 L -752.96875,80.9375 L -741.0625,75 L -751.1875,72.03125 z M -700.59375,77.375 L -712.5,82.15625 L -715.46875,90.46875 L -708.34375,85.71875 L -692.84375,83.9375 L -700.59375,77.375 z M -762.5,86.90625 L -757.75,104.75 L -751.1875,93.4375 L -762.5,86.90625 z M -604.75,93.4375 L -610.125,98.8125 L -592.84375,108.34375 L -592.25,102.96875 L -582.15625,101.78125 L -589.875,94.0625 L -591.65625,101.78125 L -604.75,93.4375 z M -646.4375,96.4375 L -652.375,111.3125 L -644.65625,112.5 L -638.6875,98.21875 L -646.4375,96.4375 z M -591.65625,108.34375 L -594.65625,120.25 L -587.5,122.03125 L -584.53125,112.5 L -591.65625,108.34375 z M -788.6875,110.71875 L -794.0625,122.03125 L -789.28125,125.59375 L -782.15625,116.0625 L -788.6875,110.71875 z M -615.46875,114.875 L -625,123.8125 L -606.5625,139.875 L -603.5625,131.5625 L -615.46875,114.875 z M -575.59375,116.65625 L -582.15625,124.40625 C -582.15626,124.40625 -572.0372,142.84672 -569.65625,141.65625 C -567.2753,140.46577 -554.15625,126.78125 -554.15625,126.78125 L -575.59375,116.65625 z M -793.4375,189.875 L -786.3125,204.75 L -779.15625,197.625 L -793.4375,189.875 z M -773.21875,203.5625 L -774.40625,213.09375 L -757.75,213.6875 L -773.21875,203.5625 z M -744.0625,220.84375 L -760.125,227.375 L -748.8125,238.6875 L -742.84375,235.71875 L -746.4375,227.375 L -744.0625,220.84375 z "
         style="fill:#e85752;fill-opacity:1;fill-rule:evenodd;stroke:none;stroke-width:1px;stroke-linecap:butt;stroke-linejoin:miter;stroke-opacity:1" />
      <path
         id="path6207"
         d="M -683.9375,92.84375 L -700.59375,98.8125 L -725,107.75 L -712.5,119.0625 L -689.28125,111.90625 L -662.5,112.5 L -662.5,97.625 L -683.9375,92.84375 z M -638.09375,98.8125 L -643.4375,116.0625 L -626.78125,124.40625 L -617.84375,113.09375 C -617.84374,113.09375 -625.58631,100.00149 -628.5625,99.40625 C -631.53868,98.811012 -638.09375,98.8125 -638.09375,98.8125 z M -726.78125,111.3125 L -731.5625,118.4375 L -720.84375,126.1875 L -714.28125,120.25 L -726.78125,111.3125 z M -790.46875,166.65625 L -792.25,183.34375 L -770.84375,188.6875 L -790.46875,166.65625 z M -766.65625,170.25 L -750.59375,191.0625 L -749.40625,176.78125 L -766.65625,170.25 z M -557.75,195.25 L -565.46875,201.1875 L -558.34375,200.59375 L -551.78125,195.25 L -557.75,195.25 z "
         style="fill:#bf0303;fill-opacity:1;fill-rule:evenodd;stroke:none;stroke-width:1px;stroke-linecap:butt;stroke-linejoin:miter;stroke-opacity:1" />
      <path
         id="path6220"
         d="M -734.52381,148.80952 L -719.04762,126.78571 L -685.11905,113.09524 L -644.04762,114.88095 L -626.78571,123.21429 L -607.7381,141.66667 L -620.2381,174.40476 L -669.64286,186.90476 L -720.2381,174.40476 L -734.52381,148.80952 z "
         style="fill:#410000;fill-opacity:1;fill-rule:evenodd;stroke:none;stroke-width:1px;stroke-linecap:butt;stroke-linejoin:miter;stroke-opacity:1" />
      <path
         id="path6243"
         d="M -625,98.21875 L -602.375,132.15625 L -617.84375,172.625 L -588.09375,163.09375 L -598.8125,132.75 L -590.46875,107.15625 L -625,98.21875 z M -724.40625,102.375 L -752.375,113.09375 L -739.28125,136.3125 L -724.40625,102.375 z M -718.4375,175.59375 L -701.78125,198.21875 L -674.40625,188.09375 L -718.4375,175.59375 z M -629.75,198.21875 L -615.46875,248.21875 C -599.80669,244.95709 -585.33468,239.71353 -574.40625,228.5625 L -629.75,198.21875 z M -701.1875,200.59375 L -707.15625,254.15625 C -694.60229,259.0626 -676.56792,258.51386 -657.75,257.15625 L -701.1875,200.59375 z "
         style="fill:url(#linearGradient6334);fill-opacity:1;fill-rule:evenodd;stroke:none;stroke-width:1px;stroke-linecap:butt;stroke-linejoin:miter;stroke-opacity:1" />
      <path
         id="path6271"
         d="M -643.4375,76.78125 L -681.5625,88.6875 L -712.5,83.34375 L -725,101.78125 L -680.9375,89.28125 L -625,97.03125 L -643.4375,76.78125 z M -592.25,108.34375 L -599.40625,132.75 L -588.6875,162.5 L -536.90625,134.53125 L -592.25,108.34375 z M -741.0625,137.5 L -748.21875,167.25 L -722.625,172.625 L -741.0625,137.5 z M -620.84375,174.40625 L -668.4375,187.5 L -630.9375,197.03125 L -620.84375,174.40625 z "
         style="fill:url(#linearGradient6336);fill-opacity:1;fill-rule:evenodd;stroke:none;stroke-width:1px;stroke-linecap:butt;stroke-linejoin:miter;stroke-opacity:1" />
      <path
         id="path6288"
         d="M -588.09375,164.28125 L -618.4375,174.40625 L -628.5625,198.21875 L -573.8125,229.75 C -573.8125,229.75 -570.81844,226.78421 -568.4375,225.59375 C -566.05655,224.40327 -588.09374,164.28125 -588.09375,164.28125 z M -748.8125,169.0625 L -789.875,208.34375 L -743.4375,216.65625 L -730.9375,229.15625 C -730.93749,229.15625 -751.79761,237.49107 -745.25,241.0625 C -738.70238,244.63393 -707.75,253.5625 -707.75,253.5625 L -701.78125,199.40625 L -720.25,175.59375 L -748.8125,169.0625 z "
         style="fill:url(#linearGradient6338);fill-opacity:1;fill-rule:evenodd;stroke:none;stroke-width:1px;stroke-linecap:butt;stroke-linejoin:miter;stroke-opacity:1" />
    </g>
    <g
       transform="matrix(0.6035277,0.7582019,-0.7582019,0.6035277,52.701619,399.13194)"
       id="use8287">
      <path
         sodipodi:type="star"
         style="opacity:1;fill:#ffffff;fill-opacity:1;stroke:none;stroke-width:2;stroke-linecap:round;stroke-linejoin:round;stroke-miterlimit:4;stroke-dasharray:none;stroke-dashoffset:0;stroke-opacity:1"
         id="path8335"
         sodipodi:sides="4"
         sodipodi:cx="106.94444"
         sodipodi:cy="63.888889"
         sodipodi:r1="20.246361"
         sodipodi:r2="0.32581782"
         sodipodi:arg1="1.3089969"
         sodipodi:arg2="2.0943951"
         inkscape:flatsided="false"
         inkscape:rounded="0"
         inkscape:randomized="0"
         d="M 112.18459,83.445372 L 106.78153,64.171056 L 87.38796,69.129034 L 106.66228,63.72598 L 101.7043,44.332407 L 107.10735,63.606723 L 126.50093,58.648745 L 107.22661,64.051798 L 112.18459,83.445372 z "
         transform="matrix(1.1420387,0,0,1.1420387,-12.412474,-5.6024739)" />
      <path
         sodipodi:type="arc"
         style="opacity:1;fill:url(#radialGradient8339);fill-opacity:1;stroke:none;stroke-width:2;stroke-linecap:round;stroke-linejoin:round;stroke-miterlimit:4;stroke-dasharray:none;stroke-dashoffset:0;stroke-opacity:1"
         id="path8337"
         sodipodi:cx="103.47222"
         sodipodi:cy="59.722221"
         sodipodi:rx="9.0277777"
         sodipodi:ry="9.0277777"
         d="M 112.5 59.722221 A 9.0277777 9.0277777 0 1 1  94.444444,59.722221 A 9.0277777 9.0277777 0 1 1  112.5 59.722221 z"
         transform="translate(5.5555556,6.9444444)" />
    </g>
  </g>
</svg>
