<?xml version="1.0" encoding="UTF-8" standalone="no"?>
<!-- Created with Inkscape (http://www.inkscape.org/) -->
<svg
   xmlns:svg="http://www.w3.org/2000/svg"
   xmlns="http://www.w3.org/2000/svg"
   xmlns:xlink="http://www.w3.org/1999/xlink"
   xmlns:inkscape="http://www.inkscape.org/namespaces/inkscape"
   version="1.0"
   width="128"
   height="128"
   id="svg2">
  <defs
     id="defs4">
    <linearGradient
       id="linearGradient3525">
      <stop
         id="stop3527"
         style="stop-color:#000000;stop-opacity:1"
         offset="0" />
      <stop
         id="stop3529"
         style="stop-color:#000000;stop-opacity:0"
         offset="1" />
    </linearGradient>
    <linearGradient
       id="linearGradient4513">
      <stop
         id="stop4515"
         style="stop-color:#c8d9ef;stop-opacity:1"
         offset="0" />
      <stop
         id="stop4517"
         style="stop-color:#a4c0e4;stop-opacity:0"
         offset="1" />
    </linearGradient>
    <linearGradient
       id="linearGradient4396">
      <stop
         id="stop4398"
         style="stop-color:#000000;stop-opacity:0"
         offset="0" />
      <stop
         id="stop4404"
         style="stop-color:#ffffff;stop-opacity:1"
         offset="0.32142857" />
      <stop
         id="stop4400"
         style="stop-color:#ffffff;stop-opacity:1"
         offset="1" />
    </linearGradient>
    <linearGradient
       id="linearGradient3904">
      <stop
         id="stop3906"
         style="stop-color:#ffffff;stop-opacity:1"
         offset="0" />
      <stop
         id="stop3908"
         style="stop-color:#ffffff;stop-opacity:0"
         offset="1" />
    </linearGradient>
    <linearGradient
       id="linearGradient3447">
      <stop
         id="stop3449"
         style="stop-color:#000000;stop-opacity:1"
         offset="0" />
      <stop
         id="stop3451"
         style="stop-color:#000000;stop-opacity:0"
         offset="1" />
    </linearGradient>
    <linearGradient
       id="linearGradient3267">
      <stop
         id="stop3269"
         style="stop-color:#ffaa00;stop-opacity:0"
         offset="0" />
      <stop
         id="stop3271"
         style="stop-color:#ffaa00;stop-opacity:1"
         offset="1" />
    </linearGradient>
    <linearGradient
       id="linearGradient3231">
      <stop
         id="stop3233"
         style="stop-color:#ffff00;stop-opacity:1"
         offset="0" />
      <stop
         id="stop3235"
         style="stop-color:#ffff00;stop-opacity:0"
         offset="1" />
    </linearGradient>
    <linearGradient
       id="linearGradient4281">
      <stop
         id="stop4283"
         style="stop-color:#ffeb55;stop-opacity:1"
         offset="0" />
      <stop
         id="stop4285"
         style="stop-color:#ffd500;stop-opacity:0.30167598"
         offset="1" />
    </linearGradient>
    <linearGradient
       id="linearGradient4197">
      <stop
         id="stop4199"
         style="stop-color:#ffbf00;stop-opacity:0"
         offset="0" />
      <stop
         id="stop4201"
         style="stop-color:#ffbf00;stop-opacity:1"
         offset="1" />
    </linearGradient>
    <linearGradient
       id="linearGradient4159">
      <stop
         id="stop4161"
         style="stop-color:#ffaa00;stop-opacity:1"
         offset="0" />
      <stop
         id="stop4163"
         style="stop-color:#ffff00;stop-opacity:0"
         offset="1" />
    </linearGradient>
    <linearGradient
       id="linearGradient4035">
      <stop
         id="stop4037"
         style="stop-color:#ff7e00;stop-opacity:1"
         offset="0" />
      <stop
         id="stop4039"
         style="stop-color:#a4c0e4;stop-opacity:0"
         offset="1" />
    </linearGradient>
    <linearGradient
       id="linearGradient3919">
      <stop
         id="stop3921"
         style="stop-color:#ffffff;stop-opacity:1"
         offset="0" />
      <stop
         id="stop3923"
         style="stop-color:#ffffff;stop-opacity:0"
         offset="1" />
    </linearGradient>
    <linearGradient
       id="linearGradient3903">
      <stop
         id="stop3905"
         style="stop-color:#fbfbfb;stop-opacity:1"
         offset="0" />
      <stop
         id="stop3907"
         style="stop-color:#eeeeee;stop-opacity:0"
         offset="1" />
    </linearGradient>
    <linearGradient
       id="linearGradient3751">
      <stop
         id="stop3753"
         style="stop-color:#eeeeee;stop-opacity:1"
         offset="0" />
      <stop
         id="stop3755"
         style="stop-color:#555555;stop-opacity:1"
         offset="1" />
    </linearGradient>
    <linearGradient
       id="linearGradient3443">
      <stop
         id="stop3445"
         style="stop-color:#000000;stop-opacity:1"
         offset="0" />
      <stop
         id="stop3447"
         style="stop-color:#000000;stop-opacity:0"
         offset="1" />
    </linearGradient>
    <linearGradient
       id="linearGradient3415">
      <stop
         id="stop3417"
         style="stop-color:#ffffff;stop-opacity:1"
         offset="0" />
      <stop
         id="stop3419"
         style="stop-color:#ffffff;stop-opacity:0"
         offset="1" />
    </linearGradient>
    <linearGradient
       id="linearGradient3187">
      <stop
         id="stop3189"
         style="stop-color:#000000;stop-opacity:1"
         offset="0" />
      <stop
         id="stop3191"
         style="stop-color:#000000;stop-opacity:0"
         offset="1" />
    </linearGradient>
    <linearGradient
       id="linearGradient3177">
      <stop
         id="stop3179"
         style="stop-color:#ffffff;stop-opacity:1"
         offset="0" />
      <stop
         id="stop3181"
         style="stop-color:#000000;stop-opacity:1"
         offset="1" />
    </linearGradient>
    <linearGradient
       x1="61.999996"
       y1="74"
       x2="65.749054"
       y2="74"
       id="linearGradient3183"
       xlink:href="#linearGradient3177"
       gradientUnits="userSpaceOnUse"
       gradientTransform="matrix(2.5,0,0,2.2300499,-93,-104.17394)"
       spreadMethod="reflect" />
    <radialGradient
       cx="11.373182"
       cy="11.166397"
       r="3.3085623"
       fx="11.373182"
       fy="11.166397"
       id="radialGradient3193"
       xlink:href="#linearGradient3187"
       gradientUnits="userSpaceOnUse" />
    <filter
       id="filter3275"
       height="1.3819534"
       y="-0.19097666"
       width="1.3819534"
       x="-0.19097666">
      <feGaussianBlur
         id="feGaussianBlur3277"
         stdDeviation="0.52654851"
         inkscape:collect="always" />
    </filter>
    <filter
       id="filter3393"
       height="1.1368014"
       y="-0.068400711"
       width="2.0742576"
       x="-0.53712881">
      <feGaussianBlur
         id="feGaussianBlur3395"
         stdDeviation="1.5666257"
         inkscape:collect="always" />
    </filter>
    <linearGradient
       x1="57.8125"
       y1="83.40625"
       x2="61.771961"
       y2="83.40625"
       id="linearGradient3421"
       xlink:href="#linearGradient3415"
       gradientUnits="userSpaceOnUse"
       gradientTransform="matrix(0.8333333,0,0,0.7433499,10.333333,31.115753)" />
    <radialGradient
       cx="62.5"
       cy="83.484375"
       r="1.5"
       fx="62.5"
       fy="83.484375"
       id="radialGradient3449"
       xlink:href="#linearGradient3443"
       gradientUnits="userSpaceOnUse"
       gradientTransform="matrix(1,0,0,92.994961,0,-7680.1418)" />
    <filter
       id="filter3487"
       height="1.042657"
       y="-0.021328513"
       width="1.7816011"
       x="-0.39080057">
      <feGaussianBlur
         id="feGaussianBlur3489"
         stdDeviation="0.4885007"
         inkscape:collect="always" />
    </filter>
    <linearGradient
       x1="61.999996"
       y1="74"
       x2="65.749054"
       y2="74"
       id="linearGradient3749"
       xlink:href="#linearGradient3177"
       gradientUnits="userSpaceOnUse"
       gradientTransform="matrix(2.5,0,0,2.2300499,-93,-104.17394)"
       spreadMethod="reflect" />
    <radialGradient
       cx="11.373182"
       cy="11.166397"
       r="3.3085623"
       fx="11.373182"
       fy="11.166397"
       id="radialGradient3757"
       xlink:href="#linearGradient3751"
       gradientUnits="userSpaceOnUse" />
    <filter
       id="filter3899"
       height="1.8224719"
       y="-0.41123596"
       width="1.8224719"
       x="-0.41123596">
      <feGaussianBlur
         id="feGaussianBlur3901"
         stdDeviation="1.1338331"
         inkscape:collect="always" />
    </filter>
    <radialGradient
       cx="10.967903"
       cy="9.9861546"
       r="3.3085623"
       fx="10.681293"
       fy="9.5422611"
       id="radialGradient3909"
       xlink:href="#linearGradient3903"
       gradientUnits="userSpaceOnUse"
       gradientTransform="matrix(2.8808419,4.054722e-8,-4.054722e-8,2.8808419,-20.839087,-19.566841)" />
    <radialGradient
       cx="60.55072"
       cy="32.664299"
       r="8.46875"
       fx="60.55072"
       fy="32.664299"
       id="radialGradient3925"
       xlink:href="#linearGradient3919"
       gradientUnits="userSpaceOnUse"
       gradientTransform="matrix(2.1497026,-1.2411314,0.9070868,1.5711204,-101.16619,73.197218)" />
    <radialGradient
       cx="11.181547"
       cy="10.668144"
       r="3.3085623"
       fx="11.181547"
       fy="9.7583227"
       id="radialGradient4041"
       xlink:href="#linearGradient4035"
       gradientUnits="userSpaceOnUse"
       gradientTransform="matrix(1.4569756,0,0,1.4569756,-4.9180587,-4.376829)" />
    <radialGradient
       cx="11.181547"
       cy="10.668144"
       r="3.3085623"
       fx="11.181547"
       fy="9.7583227"
       id="radialGradient4157"
       xlink:href="#linearGradient4159"
       gradientUnits="userSpaceOnUse"
       gradientTransform="matrix(1.4569756,0,0,1.4569756,-4.9180587,-4.376829)" />
    <radialGradient
       cx="60.55072"
       cy="32.664299"
       r="8.46875"
       fx="60.55072"
       fy="32.664299"
       id="radialGradient4167"
       xlink:href="#linearGradient3919"
       gradientUnits="userSpaceOnUse"
       gradientTransform="matrix(-0.6800095,1.1778109,0.8608088,0.496988,62.26062,-28.731637)" />
    <radialGradient
       cx="38.385838"
       cy="48.83363"
       r="18.409784"
       fx="38.268364"
       fy="50.595776"
       id="radialGradient4203"
       xlink:href="#linearGradient4197"
       gradientUnits="userSpaceOnUse"
       gradientTransform="matrix(1.7055472,0,0,1.7055472,-21.592707,-39.904043)" />
    <radialGradient
       cx="38.385838"
       cy="48.83363"
       r="18.409784"
       fx="38.268364"
       fy="50.595776"
       id="radialGradient4237"
       xlink:href="#linearGradient4197"
       gradientUnits="userSpaceOnUse"
       gradientTransform="matrix(1.7055472,0,0,1.7055472,-21.592707,-39.904043)" />
    <radialGradient
       cx="38.385838"
       cy="48.83363"
       r="18.409784"
       fx="38.268364"
       fy="50.595776"
       id="radialGradient4243"
       xlink:href="#linearGradient4197"
       gradientUnits="userSpaceOnUse"
       gradientTransform="matrix(1.7055472,0,0,1.7055472,-21.592707,-39.904043)" />
    <radialGradient
       cx="38.385838"
       cy="48.83363"
       r="18.409784"
       fx="38.268364"
       fy="50.595776"
       id="radialGradient4249"
       xlink:href="#linearGradient4197"
       gradientUnits="userSpaceOnUse"
       gradientTransform="matrix(1.7055472,0,0,1.7055472,-21.592707,-39.904043)" />
    <radialGradient
       cx="38.385838"
       cy="48.83363"
       r="18.409784"
       fx="38.268364"
       fy="50.595776"
       id="radialGradient4261"
       xlink:href="#linearGradient4197"
       gradientUnits="userSpaceOnUse"
       gradientTransform="matrix(1.7055472,0,0,1.7055472,-21.592707,-39.904043)" />
    <radialGradient
       cx="38.385838"
       cy="48.83363"
       r="18.409784"
       fx="38.268364"
       fy="50.595776"
       id="radialGradient4269"
       xlink:href="#linearGradient4197"
       gradientUnits="userSpaceOnUse"
       gradientTransform="matrix(1.7055472,0,0,1.7055472,-21.592707,-39.904043)" />
    <radialGradient
       cx="38.385838"
       cy="48.83363"
       r="18.409784"
       fx="38.268364"
       fy="50.595776"
       id="radialGradient4277"
       xlink:href="#linearGradient4197"
       gradientUnits="userSpaceOnUse"
       gradientTransform="matrix(1.7055472,0,0,1.7055472,-21.592707,-39.904043)" />
    <radialGradient
       cx="11.373182"
       cy="10.024748"
       r="3.3085623"
       fx="11.505719"
       fy="8.4343023"
       id="radialGradient4287"
       xlink:href="#linearGradient4281"
       gradientUnits="userSpaceOnUse"
       gradientTransform="matrix(1.1609266,0,0,1.1609266,-1.8302481,-1.7969708)" />
    <linearGradient
       x1="62.5"
       y1="58.463375"
       x2="62.5"
       y2="106.02396"
       id="linearGradient3237"
       xlink:href="#linearGradient3231"
       gradientUnits="userSpaceOnUse" />
    <radialGradient
       cx="11.373182"
       cy="11.166397"
       r="3.3085623"
       fx="11.373182"
       fy="11.166397"
       id="radialGradient3273"
       xlink:href="#linearGradient3267"
       gradientUnits="userSpaceOnUse"
       gradientTransform="matrix(1.1329333,0,0,1.1329333,-1.5118748,-1.4843861)" />
    <radialGradient
       cx="38.385838"
       cy="48.83363"
       r="18.409784"
       fx="38.268364"
       fy="50.595776"
       id="radialGradient3298"
       xlink:href="#linearGradient4197"
       gradientUnits="userSpaceOnUse"
       gradientTransform="matrix(1.7055472,0,0,1.7055472,-21.592707,-39.904043)" />
    <radialGradient
       cx="38.385838"
       cy="48.83363"
       r="18.409784"
       fx="38.268364"
       fy="50.595776"
       id="radialGradient3306"
       xlink:href="#linearGradient4197"
       gradientUnits="userSpaceOnUse"
       gradientTransform="matrix(1.7055472,0,0,1.7055472,-21.592707,-39.904043)" />
    <radialGradient
       cx="38.385838"
       cy="48.83363"
       r="18.409784"
       fx="38.268364"
       fy="50.595776"
       id="radialGradient3314"
       xlink:href="#linearGradient4197"
       gradientUnits="userSpaceOnUse"
       gradientTransform="matrix(1.7055472,0,0,1.7055472,-21.592707,-39.904043)" />
    <radialGradient
       cx="10.967903"
       cy="9.9861546"
       r="3.3085623"
       fx="10.681293"
       fy="9.5422611"
       id="radialGradient3436"
       xlink:href="#linearGradient3904"
       gradientUnits="userSpaceOnUse"
       gradientTransform="matrix(2.8808419,4.054722e-8,-4.054722e-8,2.8808419,-20.839087,-19.566841)" />
    <radialGradient
       cx="10.967903"
       cy="9.9861546"
       r="3.3085623"
       fx="10.681293"
       fy="9.5422611"
       id="radialGradient3438"
       xlink:href="#linearGradient3903"
       gradientUnits="userSpaceOnUse"
       gradientTransform="matrix(2.8808419,4.054722e-8,-4.054722e-8,2.8808419,-20.839087,-19.566841)" />
    <radialGradient
       cx="11.373182"
       cy="11.166397"
       r="3.3085623"
       fx="11.373182"
       fy="11.166397"
       id="radialGradient3442"
       xlink:href="#linearGradient3751"
       gradientUnits="userSpaceOnUse"
       gradientTransform="matrix(4.231445,0,0,4.231445,20.875004,21.750006)" />
    <linearGradient
       x1="62"
       y1="74.379364"
       x2="62"
       y2="82.96875"
       id="linearGradient3453"
       xlink:href="#linearGradient3447"
       gradientUnits="userSpaceOnUse"
       gradientTransform="translate(-2,0)" />
    <filter
       id="filter3496">
      <feGaussianBlur
         id="feGaussianBlur3498"
         stdDeviation="0.3929073"
         inkscape:collect="always" />
    </filter>
    <filter
       id="filter3867"
       height="1.5123596"
       y="-0.25617978"
       width="1.5123596"
       x="-0.25617978">
      <feGaussianBlur
         id="feGaussianBlur3869"
         stdDeviation="0.70632228"
         inkscape:collect="always" />
    </filter>
    <filter
       id="filter4438">
      <feGaussianBlur
         id="feGaussianBlur4440"
         stdDeviation="1.821875"
         inkscape:collect="always" />
    </filter>
    <radialGradient
       cx="63.00948"
       cy="101.07298"
       r="101.5"
       fx="63.00948"
       fy="101.07298"
       id="radialGradient4453"
       xlink:href="#linearGradient4396"
       gradientUnits="userSpaceOnUse"
       gradientTransform="matrix(1.4682452,-6.4349589e-3,5.7623319e-3,1.3147739,-29.241731,-37.107767)" />
    <mask
       id="mask4449">
      <path
         d="M -45.59375,-48 C -46.924431,-48 -48,-46.924431 -48,-45.59375 L -11.737645,123.83604 C -11.737645,125.16672 -10.662076,126.24229 -9.3313951,126.24229 L 36.262355,126.24229 L 36.262355,108.86729 L 60,60 L 68,60 L 92.322519,108.86729 L 92.322519,126.24229 L 116.91627,126.24229 C 118.24695,126.24229 119.32252,125.16672 119.32252,123.83604 L 155,-45.59375 C 155,-46.924431 153.92443,-48 152.59375,-48 L -45.59375,-48 z"
         id="path4451"
         style="opacity:1;fill:url(#radialGradient4453);fill-opacity:1;stroke:none;stroke-width:3;stroke-linecap:round;stroke-linejoin:round;stroke-miterlimit:4;stroke-dasharray:none;stroke-opacity:1;filter:url(#filter4438)" />
    </mask>
    <filter
       id="filter4509">
      <feGaussianBlur
         id="feGaussianBlur4511"
         stdDeviation="0.5242958"
         inkscape:collect="always" />
    </filter>
    <linearGradient
       x1="51.282715"
       y1="55.831985"
       x2="74.029076"
       y2="67.618736"
       id="linearGradient4519"
       xlink:href="#linearGradient4513"
       gradientUnits="userSpaceOnUse" />
    <filter
       id="filter4620"
       height="1.3670076"
       y="-0.18350381"
       width="1.213132"
       x="-0.10656601">
      <feGaussianBlur
         id="feGaussianBlur4622"
         stdDeviation="0.53283006"
         inkscape:collect="always" />
    </filter>
    <filter
       id="filter3434">
      <feGaussianBlur
         id="feGaussianBlur3436"
         stdDeviation="0.043190051"
         inkscape:collect="always" />
    </filter>
    <filter
       id="filter3443">
      <feGaussianBlur
         id="feGaussianBlur3445"
         stdDeviation="0.04254932"
         inkscape:collect="always" />
    </filter>
    <filter
       id="filter3447">
      <feGaussianBlur
         id="feGaussianBlur3449"
         stdDeviation="0.042181622"
         inkscape:collect="always" />
    </filter>
    <filter
       id="filter3521"
       height="1.827455"
       y="-0.41372749"
       width="1.6289464"
       x="-0.31447321">
      <feGaussianBlur
         id="feGaussianBlur3523"
         stdDeviation="1.5723661"
         inkscape:collect="always" />
    </filter>
    <linearGradient
       x1="62"
       y1="115.71875"
       x2="62"
       y2="108.83685"
       id="linearGradient3531"
       xlink:href="#linearGradient3525"
       gradientUnits="userSpaceOnUse" />
    <filter
       id="filter3331">
      <feGaussianBlur
         id="feGaussianBlur3333"
         stdDeviation="0.041914769"
         inkscape:collect="always" />
    </filter>
  </defs>
  <g
     id="layer1">
    <path
       d="M 14.681745,11.166397 A 3.3085623,3.3085623 0 1 1 8.06462,11.166397 A 3.3085623,3.3085623 0 1 1 14.681745,11.166397 z"
       transform="matrix(4.1064454,0,0,0.7714843,15.710217,103.9378)"
       id="path3185"
       style="opacity:0.42696629;fill:url(#radialGradient3193);fill-opacity:1;stroke:none;stroke-width:0.60155684;stroke-linecap:round;stroke-linejoin:round;stroke-miterlimit:4;stroke-dasharray:none;stroke-opacity:1;filter:url(#filter3275)" />
    <path
       d="M 57,72.743352 L 57,109.91085 C 57,112.37283 59.239998,113.60238 62,113.60238 C 64.76,113.60238 67.000003,112.37283 67,109.91085 L 67,72.743352 L 57,72.743352 z"
       id="rect2162"
       style="opacity:1;fill:url(#linearGradient3183);fill-opacity:1;stroke:none;stroke-width:1;stroke-linecap:round;stroke-linejoin:round;stroke-miterlimit:4;stroke-dasharray:none;stroke-opacity:1" />
    <path
       d="M 58.625,54.40901 L 58.625,108.65901 C 59.590055,109.13733 60.741525,109.37776 62,109.37776 C 63.367346,109.37776 64.615601,109.09813 65.625,108.53401 L 65.625,54.40901 L 58.625,54.40901 z"
       transform="matrix(1.1515229,0,0,1.1515229,-9.413359,-12.297809)"
       id="path3279"
       style="opacity:1;fill:#eeeeee;fill-opacity:1;stroke:none;stroke-width:1;stroke-linecap:round;stroke-linejoin:round;stroke-miterlimit:4;stroke-dasharray:none;stroke-opacity:1;filter:url(#filter3393)" />
    <path
       d="M 58.510417,72.743352 L 58.510417,111.88537 C 58.510417,112.20166 58.55085,112.48863 58.614583,112.7681 C 59.217943,113.14203 59.954756,113.36746 60.776042,113.48822 C 60.55403,113.0193 60.411458,112.48818 60.411458,111.88537 L 60.411458,72.743352 L 58.510417,72.743352 z"
       id="path3397"
       style="opacity:1;fill:url(#linearGradient3421);fill-opacity:1;stroke:none;stroke-width:1;stroke-linecap:round;stroke-linejoin:round;stroke-miterlimit:4;stroke-dasharray:none;stroke-opacity:1" />
    <path
       d="M 57,72.743352 L 57,109.91085 C 57,112.37283 59.239998,113.60238 62,113.60238 C 64.76,113.60238 67.000003,112.37283 67,109.91085 L 67,72.743352 L 57,72.743352 z"
       id="path3427"
       style="opacity:1;fill:url(#linearGradient3749);fill-opacity:1;stroke:none;stroke-width:1;stroke-linecap:round;stroke-linejoin:round;stroke-miterlimit:4;stroke-dasharray:none;stroke-opacity:1" />
    <path
       d="M 61,56 L 61,110.90625 C 61.323999,110.94098 61.660682,110.96875 62,110.96875 C 62.701799,110.96875 63.373873,110.86732 64,110.71875 L 64,56 L 61,56 z"
       transform="matrix(-0.2746921,0,0,0.7433499,76.046365,30.372404)"
       id="path3432"
       style="opacity:0.80898874;fill:#ffffff;fill-opacity:1;stroke:none;stroke-width:1;stroke-linecap:round;stroke-linejoin:round;stroke-miterlimit:4;stroke-dasharray:none;stroke-opacity:1;filter:url(#filter3487)" />
    <path
       d="M 61,56 L 61,110.90625 C 61.323999,110.94098 61.660682,110.96875 62,110.96875 C 62.701799,110.96875 63.373873,110.86732 64,110.71875 L 64,56 L 61,56 z"
       transform="matrix(-0.2746921,0,0,0.7433499,77.713032,31.115753)"
       id="path3430"
       style="opacity:0.67977528;fill:#ffffff;fill-opacity:1;stroke:none;stroke-width:1;stroke-linecap:round;stroke-linejoin:round;stroke-miterlimit:4;stroke-dasharray:none;stroke-opacity:1;filter:url(#filter3487)" />
    <path
       d="M 56.28125,60 C 55.330758,61.129843 54.557954,62.420171 54,63.8125 L 54,66.115931 C 55.948102,70.977263 60.542791,72.49402 66,72.879289 L 66,60 L 56.28125,60 z"
       transform="matrix(0.8333333,0,0,0.7433499,12,26.142354)"
       id="path3440"
       style="opacity:0.46629214;fill:url(#linearGradient3453);fill-opacity:1;stroke:none;stroke-width:0.60155684;stroke-linecap:round;stroke-linejoin:round;stroke-miterlimit:4;stroke-dasharray:none;stroke-opacity:1;filter:url(#filter3496)" />
    <path
       d="M 61,56 L 61,110.90625 C 61.323999,110.94098 61.660682,110.96875 62,110.96875 C 62.701799,110.96875 63.373873,110.86732 64,110.71875 L 64,56 L 61,56 z"
       transform="matrix(1.0788565,0,0,0.7433499,-4.6435808,31.115753)"
       id="path3429"
       style="opacity:0.65168541;fill:url(#radialGradient3449);fill-opacity:1;stroke:none;stroke-width:1;stroke-linecap:round;stroke-linejoin:round;stroke-miterlimit:4;stroke-dasharray:none;stroke-opacity:1;filter:url(#filter3487)" />
    <path
       d="M 14.681745,11.166397 A 3.3085623,3.3085623 0 1 1 8.06462,11.166397 A 3.3085623,3.3085623 0 1 1 14.681745,11.166397 z"
       transform="matrix(4.231445,0,0,4.231445,13.875004,14.750006)"
       id="path2160"
       style="opacity:1;fill:url(#radialGradient3757);fill-opacity:1;stroke:none;stroke-width:0.60155684;stroke-linecap:round;stroke-linejoin:round;stroke-miterlimit:4;stroke-dasharray:none;stroke-opacity:1" />
    <path
       d="M 14.681745,11.166397 A 3.3085623,3.3085623 0 1 1 8.06462,11.166397 A 3.3085623,3.3085623 0 1 1 14.681745,11.166397 z"
       transform="matrix(3.5224611,0,0,3.5224611,21.938407,22.666802)"
       id="path3759"
       style="opacity:1;fill:url(#radialGradient3438);fill-opacity:1;stroke:none;stroke-width:0.60155684;stroke-linecap:round;stroke-linejoin:round;stroke-miterlimit:4;stroke-dasharray:none;stroke-opacity:1;filter:url(#filter3899)" />
    <path
       d="M 14.681745,11.166397 A 3.3085623,3.3085623 0 1 1 8.06462,11.166397 A 3.3085623,3.3085623 0 1 1 14.681745,11.166397 z"
       transform="matrix(4.0537111,0,0,4.0537111,15.896403,16.631261)"
       id="path3424"
       style="opacity:1;fill:url(#radialGradient3436);fill-opacity:1;stroke:none;stroke-width:0.60155684;stroke-linecap:round;stroke-linejoin:round;stroke-miterlimit:4;stroke-dasharray:none;stroke-opacity:1;filter:url(#filter3867)" />
    <path
       d="M 56,108.75 L 56,110.75 C 56,114.062 58.687997,115.71875 62,115.71875 C 65.312,115.71875 68.000003,114.062 68,110.75 L 68,108.75 C 68.000003,112.062 65.312,113.71875 62,113.71875 C 58.687997,113.71875 56,112.062 56,108.75 z"
       transform="matrix(0.78125,0,0,0.6968906,13.5625,33.356693)"
       id="path3496"
       style="opacity:0.38202245;fill:#000000;fill-opacity:1;stroke:none;stroke-width:1;stroke-linecap:round;stroke-linejoin:round;stroke-miterlimit:4;stroke-dasharray:none;stroke-opacity:1;filter:url(#filter4620)" />
    <g
       mask="url(#mask4449)"
       id="g4369">
      <g
         transform="matrix(1.5177853,0,0,1.5177853,-32.227683,-32.727685)"
         id="g4351">
        <path
           d="M 63.276252,60.898224 A 3.7221324,4.4458804 0 1 1 55.831987,60.898224 A 3.7221324,4.4458804 0 1 1 63.276252,60.898224 z"
           transform="matrix(5.7762585,0,0,4.8359358,-281.99999,-232.4999)"
           id="path4353"
           style="opacity:1;fill:none;fill-opacity:1;stroke:#cd1a24;stroke-width:0.37397912;stroke-linecap:round;stroke-linejoin:round;stroke-miterlimit:4;stroke-dasharray:none;stroke-opacity:0.96078431;filter:url(#filter3443)" />
        <path
           d="M 63.276252,60.898224 A 3.7221324,4.4458804 0 1 1 55.831987,60.898224 A 3.7221324,4.4458804 0 1 1 63.276252,60.898224 z"
           transform="matrix(5.7762585,0,0,4.8359358,-281.99999,-232.4999)"
           id="path4355"
           style="opacity:1;fill:none;fill-opacity:1;stroke:#f4f9ff;stroke-width:0.1246597;stroke-linecap:round;stroke-linejoin:round;stroke-miterlimit:4;stroke-dasharray:none;stroke-opacity:1" />
      </g>
      <g
         transform="matrix(1.889299,0,0,1.889299,-55.136532,-55.761537)"
         id="g4357">
        <path
           d="M 63.276252,60.898224 A 3.7221324,4.4458804 0 1 1 55.831987,60.898224 A 3.7221324,4.4458804 0 1 1 63.276252,60.898224 z"
           transform="matrix(5.7762585,0,0,4.8359358,-281.99999,-232.4999)"
           id="path4359"
           style="opacity:1;fill:none;fill-opacity:1;stroke:#cd1a24;stroke-width:0.30043948;stroke-linecap:round;stroke-linejoin:round;stroke-miterlimit:4;stroke-dasharray:none;stroke-opacity:0.96078431;filter:url(#filter3447)" />
        <path
           d="M 63.276252,60.898224 A 3.7221324,4.4458804 0 1 1 55.831987,60.898224 A 3.7221324,4.4458804 0 1 1 63.276252,60.898224 z"
           transform="matrix(5.7762585,0,0,4.8359358,-281.99999,-232.4999)"
           id="path4361"
           style="opacity:1;fill:none;fill-opacity:1;stroke:#f4f9ff;stroke-width:0.10014649;stroke-linecap:round;stroke-linejoin:round;stroke-miterlimit:4;stroke-dasharray:none;stroke-opacity:1" />
      </g>
      <g
         transform="matrix(1.1304347,0,0,1.1304347,-8.2119499,-7.3369504)"
         id="g4320">
        <path
           d="M 63.276252,60.898224 A 3.7221324,4.4458804 0 1 1 55.831987,60.898224 A 3.7221324,4.4458804 0 1 1 63.276252,60.898224 z"
           transform="matrix(5.7762585,0,0,4.8359358,-281.99999,-232.4999)"
           id="path4254"
           style="opacity:1;fill:none;fill-opacity:1;stroke:#cd1a24;stroke-width:0.50212538;stroke-linecap:round;stroke-linejoin:round;stroke-miterlimit:4;stroke-dasharray:none;stroke-opacity:0.96078431;filter:url(#filter3434)" />
        <path
           d="M 63.276252,60.898224 A 3.7221324,4.4458804 0 1 1 55.831987,60.898224 A 3.7221324,4.4458804 0 1 1 63.276252,60.898224 z"
           transform="matrix(5.7762585,0,0,4.8359358,-281.99999,-232.4999)"
           id="path4250"
           style="opacity:1;fill:none;fill-opacity:1;stroke:#f4f9ff;stroke-width:0.16737513;stroke-linecap:round;stroke-linejoin:round;stroke-miterlimit:4;stroke-dasharray:none;stroke-opacity:1" />
      </g>
      <g
         transform="matrix(2.2974164,0,0,2.2974164,-80.439808,-81.064815)"
         id="g4363">
        <path
           d="M 63.276252,60.898224 A 3.7221324,4.4458804 0 1 1 55.831987,60.898224 A 3.7221324,4.4458804 0 1 1 63.276252,60.898224 z"
           transform="matrix(5.7762585,0,0,4.8359358,-281.99999,-232.4999)"
           id="path4365"
           style="opacity:1;fill:none;fill-opacity:1;stroke:#cd1a24;stroke-width:0.24706884;stroke-linecap:round;stroke-linejoin:round;stroke-miterlimit:4;stroke-dasharray:none;stroke-opacity:0.96078431;filter:url(#filter3331)" />
        <path
           d="M 63.276252,60.898224 A 3.7221324,4.4458804 0 1 1 55.831987,60.898224 A 3.7221324,4.4458804 0 1 1 63.276252,60.898224 z"
           transform="matrix(5.7762585,0,0,4.8359358,-281.99999,-232.4999)"
           id="path4367"
           style="opacity:1;fill:none;fill-opacity:1;stroke:#fff5f4;stroke-width:0.08235627;stroke-linecap:round;stroke-linejoin:round;stroke-miterlimit:4;stroke-dasharray:none;stroke-opacity:1" />
      </g>
    </g>
    <path
       d="M 56.65625,49.59375 C 55.646311,50.033613 54.706315,50.618142 53.84375,51.28125 C 57.261843,57.002187 62.80554,61.45174 69.75,63.3125 C 71.334074,63.736955 72.92126,63.934179 74.5,64.0625 C 74.277852,64.008985 74.034486,63.996978 73.8125,63.9375 C 65.957757,61.83283 59.872941,56.416325 56.65625,49.59375 z M 51.34375,53.78125 C 50.597238,54.758841 49.988801,55.837747 49.53125,57 C 54.382874,62.259166 61.312473,65.562503 69.03125,65.5625 C 70.671208,65.562503 72.254343,65.347158 73.8125,65.0625 C 73.584077,65.068305 73.354817,65.124997 73.125,65.125 C 64.113149,65.125001 56.145481,60.646129 51.34375,53.78125 z M 48.65625,60.75 C 48.623701,61.130869 48.59375,61.516999 48.59375,61.90625 C 48.59375,63.079009 48.748042,64.196832 49.03125,65.28125 C 54.946003,68.749945 62.191453,69.947705 69.34375,68.03125 C 70.92783,67.606797 72.412361,66.99074 73.84375,66.3125 C 73.624612,66.377225 73.409485,66.503016 73.1875,66.5625 C 64.234691,68.961399 55.11553,66.472645 48.65625,60.75 z"
       id="path4483"
       style="opacity:0.57303371;fill:url(#linearGradient4519);fill-opacity:1;stroke:none;stroke-width:0.60155684;stroke-linecap:round;stroke-linejoin:round;stroke-miterlimit:4;stroke-dasharray:none;stroke-opacity:1;filter:url(#filter4509)" />
    <g
       id="g4528">
      <path
         d="M 61.172662,50.385116 C 58.378356,50.385116 55.88652,51.618256 54.144656,53.537866 C 54.544232,54.811799 54.637089,55.471691 55.353027,56.336525 C 57.571342,54.140304 62.235571,51.698762 65.376329,51.698762 C 65.591615,51.698762 65.798602,51.71007 66.011258,51.720656 C 64.592462,50.880253 62.940111,50.385116 61.172662,50.385116 z"
         id="path3911"
         style="opacity:1;fill:url(#radialGradient3925);fill-opacity:1;stroke:none;stroke-width:0.60155684;stroke-linecap:round;stroke-linejoin:round;stroke-miterlimit:4;stroke-dasharray:none;stroke-opacity:1" />
      <path
         d="M 50.223025,61.362892 C 50.223025,58.568587 51.456165,56.07675 53.375775,54.334886 C 53.644932,55.38975 54.042711,56.40001 54.558057,57.334379 C 52.667636,59.552694 51.53667,62.425801 51.536672,65.566559 C 51.536672,65.781846 51.547979,65.988832 51.558565,66.201487 C 50.718162,64.782692 50.223026,63.130342 50.223025,61.362892 z"
         id="path4165"
         style="opacity:1;fill:url(#radialGradient4167);fill-opacity:1;stroke:none;stroke-width:0.60155684;stroke-linecap:round;stroke-linejoin:round;stroke-miterlimit:4;stroke-dasharray:none;stroke-opacity:1" />
    </g>
    <path
       d="M 56,106.59758 L 56,110.75 C 56,114.062 58.687997,115.71875 62,115.71875 C 65.312,115.71875 68.000003,114.062 68,110.75 L 68,106.59758 C 68.000003,109.90958 65.312,109.41391 62,109.41391 C 58.687997,109.41391 56,109.90958 56,106.59758 z"
       transform="matrix(0.78125,0,0,0.6968906,13.5625,33.356693)"
       id="path3455"
       style="opacity:0.81000001;fill:url(#linearGradient3531);fill-opacity:1;stroke:none;stroke-width:1;stroke-linecap:round;stroke-linejoin:round;stroke-miterlimit:4;stroke-dasharray:none;stroke-opacity:1;filter:url(#filter3521)" />
  </g>
</svg>
