<?xml version="1.0" encoding="UTF-8" standalone="no"?>
<!DOCTYPE svg PUBLIC "-//W3C//DTD SVG 20010904//EN"
"http://www.w3.org/TR/2001/REC-SVG-20010904/DTD/svg10.dtd">
<!-- Created with Sodipodi ("http://www.sodipodi.com/") -->
<svg
   width="128"
   height="128"
   viewBox="0 0 128 128"
   overflow="visible"
   enable-background="new 0 0 128 128"
   xml:space="preserve"
   id="svg607"
   sodipodi:version="0.32"
   sodipodi:docname="/home/jr/umbrello.svg"
   sodipodi:docbase="/home/jr/"
   xmlns="http://www.w3.org/2000/svg"
   xmlns:sodipodi="http://sodipodi.sourceforge.net/DTD/sodipodi-0.dtd"
   xmlns:xml="http://www.w3.org/XML/1998/namespace"
   xmlns:xlink="http://www.w3.org/1999/xlink">
  <defs
     id="defs666">
    <linearGradient
       id="linearGradient668">
      <stop
         style="stop-color:#000;stop-opacity:1;"
         offset="0"
         id="stop669" />
      <stop
         style="stop-color:#fff;stop-opacity:1;"
         offset="1"
         id="stop670" />
    </linearGradient>
    <linearGradient
       xlink:href="#linearGradient668"
       id="linearGradient671"
       x1="-0.00000000"
       y1="0.00000002"
       x2="1.00000000"
       y2="0.00000002"
       gradientUnits="objectBoundingBox"
       spreadMethod="pad" />
    <radialGradient
       xlink:href="#linearGradient668"
       id="radialGradient672" />
  </defs>
  <sodipodi:namedview
     id="base">
    <sodipodi:guide
       orientation="vertical"
       position="0.000000"
       id="guide681" />
    <sodipodi:guide
       orientation="vertical"
       position="33.727386"
       id="guide682" />
    <sodipodi:guide
       orientation="vertical"
       position="14.2692804"
       id="guide683" />
    <sodipodi:guide
       orientation="horizontal"
       position="31.3688297"
       id="guide684" />
  </sodipodi:namedview>
  <g
     id="g666">
    <path
       sodipodi:type="arc"
       style="font-size:12;fill:#ffffc6;fill-rule:evenodd;stroke:#ff0000;stroke-width:7.5;"
       id="path692"
       d="M 124.627609 92.865616 A 38.007004 15.246998 0 1 0 48.613602,92.865616 A 38.007 15.247 0 1 0 124.628 92.8656 L 86.620605 92.865616 z"
       sodipodi:cx="86.620605"
       sodipodi:cy="92.865616"
       sodipodi:rx="38.007004"
       sodipodi:ry="15.246998"
       transform="matrix(0.928695,0.000000,0.000000,1.417564,8.002730,-31.08487)" />
    <path
       style="font-size:12;fill:none;fill-rule:evenodd;stroke:#ff0000;stroke-width:7.5;"
       d="M 72.4785 79.3864 C 34.9134 21.0501 34.9134 21.0501 34.9134 21.0501 "
       id="path693"
       transform="matrix(1.411764,0.000000,0.000000,0.833773,-11.72443,12.31231)" />
    <g
       id="g660">
      <path
         sodipodi:type="arc"
         style="font-size:12;fill:#ffffc6;fill-rule:evenodd;stroke:#ff0000;stroke-width:7.5;"
         id="path676"
         d="M 40.442997 41.068401 A 16.677525 14.801304 0 1 0 7.087948,41.068401 A 16.6775 14.8013 0 1 0 40.443 41.0684 L 23.765472 41.068401 z"
         sodipodi:cx="23.765472"
         sodipodi:cy="41.068401"
         sodipodi:rx="16.677525"
         sodipodi:ry="14.801304"
         transform="matrix(1.013258,0.000000,0.000000,1.024898,-2.648489,-22.24460)" />
      <path
         style="font-size:12;fill:#ffffc6;fill-rule:evenodd;stroke:#ff0000;stroke-width:7.5;"
         d="M 21.6808 37.9414 C 21.6808 72.9642 21.6808 73.3811 21.6808 73.3811 "
         id="path678"
         transform="translate(-0.149714,-2.803091)" />
      <path
         style="font-size:12;fill:none;fill-rule:evenodd;stroke:#ff0000;stroke-width:7.5;"
         d="M 21.8167 72.8687 C 6.04381 92.769 6.04381 92.769 6.04381 92.769 "
         id="path679"
         transform="matrix(1.140186,0.000000,0.000000,1.081482,-3.208123,-8.740551)" />
      <path
         style="font-size:12;fill:none;fill-rule:evenodd;stroke:#ff0000;stroke-width:7.5;"
         d="M 21.8167 72.8687 C 6.04381 92.769 6.04381 92.769 6.04381 92.769 "
         id="path680"
         transform="matrix(-0.325459,1.009940,-1.143542,-0.287436,129.3098,90.41549)" />
      <path
         style="font-size:12;fill:none;fill-rule:evenodd;stroke:#ff0000;stroke-width:7.5;"
         d="M 21.8167 72.8687 C 6.04381 92.769 6.04381 92.769 6.04381 92.769 "
         id="path685"
         transform="matrix(0.907775,0.892150,-1.392062,0.707907,123.9441,-17.72130)" />
    </g>
  </g>
</svg>
